<svg width="14" height="14" viewBox="0 0 14 14" fill="none" xmlns="http://www.w3.org/2000/svg">
<g id="discord-icon-svgrepo-com 1">
<g id="Group">
<path id="Vector" d="M11.8593 2.46622C10.9531 2.04221 9.98409 1.73406 8.97102 1.55859C8.84661 1.78353 8.70125 2.08608 8.60104 2.32676C7.52412 2.1648 6.45712 2.1648 5.40001 2.32676C5.29981 2.08608 5.15116 1.78353 5.02563 1.55859C4.01147 1.73406 3.04136 2.04334 2.13511 2.46847C0.307208 5.23067 -0.188307 7.92426 0.0594514 10.5796C1.27181 11.485 2.44674 12.035 3.60184 12.3948C3.88704 12.0023 4.14139 11.5851 4.36052 11.1453C3.94319 10.9868 3.54347 10.7911 3.16579 10.5639C3.26599 10.4896 3.364 10.412 3.45869 10.3322C5.76228 11.4096 8.26519 11.4096 10.5413 10.3322C10.6371 10.412 10.7351 10.4896 10.8342 10.5639C10.4554 10.7922 10.0546 10.9879 9.63723 11.1465C9.85635 11.5851 10.1096 12.0035 10.3959 12.396C11.5521 12.0361 12.7281 11.4861 13.9405 10.5796C14.2312 7.50139 13.4439 4.83253 11.8593 2.46622ZM4.67435 8.9466C3.98284 8.9466 3.41574 8.30102 3.41574 7.51488C3.41574 6.72873 3.97073 6.08205 4.67435 6.08205C5.378 6.08205 5.94508 6.7276 5.93297 7.51488C5.93406 8.30102 5.378 8.9466 4.67435 8.9466ZM9.3256 8.9466C8.63408 8.9466 8.06699 8.30102 8.06699 7.51488C8.06699 6.72873 8.62195 6.08205 9.3256 6.08205C10.0292 6.08205 10.5963 6.7276 10.5842 7.51488C10.5842 8.30102 10.0292 8.9466 9.3256 8.9466Z" fill="#1D1D1F"/>
</g>
</g>
</svg>
