<?xml version="1.0" encoding="UTF-8"?>
<svg id="_Слой_2" data-name="Слой 2" xmlns="http://www.w3.org/2000/svg" viewBox="0 0 3299.79 869.01">
  <defs>
    <style>
      .cls-1 {
        fill: #fdba2d;
      }

      .cls-2 {
        fill: #0190d4;
      }

      .cls-3 {
        fill: #ef4c23;
      }

      .cls-4 {
        fill: #28b356;
      }

      .cls-5 {
        fill: none;
      }

      .cls-6 {
        fill: #1d1d1f;
      }

      .cls-7 {
        fill: #666;
      }
    </style>
  </defs>
  <g id="_Слой_1-2" data-name="Слой 1">
    <g>
      <rect class="cls-5" width="3299.79" height="793"/>
      <g>
        <g>
          <g>
            <path class="cls-2" d="m608.68,140.38c10.13,7.64,18.43,17.13,26.14,27.03,16.47,21.15,28.58,44.64,35.92,70.48.8,2.81,2.47,4.36,4.64,5.93,23.53,16.99,40.26,39.25,50.94,66.14,8.27,20.83,11.95,42.48,9.99,64.79-4.64,52.87-29.98,93.01-75.59,120.13-17.78,10.57-37.2,16.53-57.78,18.63-1.88.19-3.79.09-5.69.12-2.53.9-5.16.46-7.74.47-36.9.03-73.79.03-110.69,0-2.57,0-5.21.52-7.71-.56-3.27-2.21-3.13-5.71-3.16-8.98-.24-24.21-.22-48.42-.02-72.63.03-3.1.31-6.18,2.25-8.82,2.6-2.34,5.83-1.65,8.84-1.66,21.59-.07,43.19-.14,64.78,0,14.95.1,29.87.18,44.64-2.45,25.82.85,48.27-21.83,52.16-44.21,4.39-25.21-8.43-49.95-32.2-60.62-5.28-2.37-10.9-3.41-16.52-4.23-5.8-.85-8.12-3.97-8.36-9.57-.28-6.87.11-13.73-.88-20.62-3.68-25.65-15.02-47.23-33.46-65.28-2.82-2.76-6.34-5.2-6.8-9.69-.02-3.16,2.06-5.16,4.06-7.18,17.8-17.99,35.76-35.81,53.65-53.7,2.36-2.36,4.7-4.85,8.59-3.51Z"/>
            <path class="cls-1" d="m265.66,483.67c-14.97-10.53-26.82-24.01-36.63-39.32-17.46-27.28-24.81-57.31-22.89-89.47,1.71-28.62,11.2-54.6,28.21-77.84,9.34-12.75,20.07-24.01,32.93-33.21,1.78-1.27,3.12-2.9,4.27-4.71,9.28-12.36,23.41-16.77,37.01-21.05,25.48-8,51.59-10.2,77.95-4.04,2.3,1.82,5.07,2.48,7.84,3.13,30.92,7.25,56.05,23.95,77.07,47.31,6.2,6.9,6.13,11.04-.49,17.73-17.55,17.74-35.2,35.38-52.93,52.94-7.75,7.68-10.34,7.49-16.79-1.26-17.71-23.98-42.6-29.34-65.45-20.5-40.27,15.58-47.69,68.37-13.72,94.38,3.65,2.8,8.48,4.56,10.52,9.3.93,3.8-1.3,6.32-3.72,8.63-12.79,12.26-24.46,25.66-38.14,37.02-6.35,5.27-10.56,12.7-16.92,18.08-2.42,2.04-4.63,4.16-8.13,2.85Z"/>
            <path class="cls-3" d="m386.89,216.5c-5.74.79-11.27-.95-16.88-1.56-24.76-2.71-48.46,1.47-71.45,10.53-8.59,3.38-16.83,7.44-24.32,12.91-.7.51-1.78.51-2.68.75.47-6.54,3.3-12.43,5.68-18.3,22.47-55.22,60.77-95.06,116.07-117.99,22.8-9.46,46.62-14.17,71.34-15,35.92-1.2,69.8,6.53,101.68,22.78,15.45,7.87,30.02,17.3,42.35,29.76-21.47,21.5-42.94,43-64.42,64.5-3.63,2.35-6.46-.06-9.06-1.89-20.3-14.3-42.82-20.78-67.61-20.06-27.26.8-50.66,10.94-71.17,28.46-2.81,2.4-4.95,6.03-9.54,5.11Z"/>
            <path class="cls-4" d="m265.66,483.67c19.65-19.49,39.31-38.96,58.95-58.47,2.34-2.33,4.55-4.8,6.82-7.2,1.89-2.64,4.42-1.88,6.91-1.28,4.04.97,8.06,2.09,12.26,2.19,36.86,5.05,73.91,1.35,110.85,2.54,3.39.11,7.24-1.21,9.91,2.29-.04,28.42-.08,56.84-.09,85.26,0,1.41.23,2.83.35,4.24-.39.25-.79.51-1.18.76-40.78.26-81.56.05-122.33.11-.96,0-1.89-.11-2.78-.47-21.79-.53-41.99-6.92-60.99-17.19-6.62-3.57-13.55-6.91-18.66-12.79Z"/>
          </g>
          <g>
            <path class="cls-6" d="m1182.94,287.98c2.69,7.25,2.43,14.97,2.47,22.4.08,15.64-1.38,31.13-5.68,46.41-7.3,25.93-22,46.68-42.63,63.33-22.68,18.31-48.92,27.57-78.01,29.03-16.17.81-32.23.65-48.11-3-31.11-7.14-56.88-23.25-78.24-46.65-15.26-16.72-26.55-35.74-32.82-57.65-4.43-15.46-5.94-31.21-5.41-47.18,1.66-50.06,25.44-87.99,65.06-116.79,20.35-14.8,43.49-22.89,68.55-25.62,31.33-3.41,60.99,1.75,88.84,16.65,10.09,5.4,19.23,12.15,27.77,19.77,2.5,2.23,2.9,3.85.36,6.32-7.65,7.47-15.19,15.05-22.68,22.68-2.19,2.23-3.81,1.88-5.98-.09-11.41-10.39-24.51-18.07-39.39-22.09-34.53-9.34-66.76-4.79-95.7,17.25-17.83,13.58-31.21,30.61-37.89,52.16-18.24,58.84,9.24,116.74,65.36,138.6,9.75,3.8,20.01,5.66,30.59,5.99,18.02.57,35.61-1.16,52.14-8.88,15.5-7.24,29.01-17.08,38.79-31.44,7.51-11.03,11.14-23.49,13.43-36.45.57-3.2-.51-5.02-4.1-4.89-3.32.12-6.65,0-9.98,0-25.42,0-50.85.01-76.27-.01-6.6,0-6.58-.07-6.58-6.66,0-9.74-.02-19.48-.01-29.22,0-1.39-.41-2.86.61-4.11.89-.36,1.82-.49,2.77-.49,43.1,0,86.2,0,129.3,0,1.19,0,2.37,0,3.44.64Z"/>
            <path class="cls-6" d="m2302.58,449.6c-34.72.25-64.19-9.18-89.25-30.73-24.84-21.36-40.31-48-45.56-80.67-4.78-29.73-1.96-58.5,11.23-85.44,19.25-39.3,50.71-64.18,93.82-72.79,28.02-5.59,55.79-3.56,82.31,8.18,14.97,6.62,27.79,16.24,38.86,28.32,2.38,2.6,2.22,4.14-.19,6.39-5.56,5.18-10.99,10.5-16.37,15.88-2.41,2.41-4.27,2.23-6.43-.35-33.25-39.74-104-39.19-141.99-.84-16.82,16.98-25.98,37.01-28.88,60.42-2.81,22.7-.76,44.87,9.8,65.21,16.83,32.4,43.69,51,80.39,54.87,25.66,2.7,48.99-3.33,70.1-18.04,6.63-4.62,12.77-9.9,18.23-15.86,2.59-2.83,4.36-2.6,6.86.08,4.53,4.87,9.38,9.44,14.08,14.15,5.35,5.38,5.41,5.45.34,10.7-8.12,8.42-17.14,15.68-27.23,21.66-22.23,13.16-46.24,19.42-70.13,18.88Z"/>
            <path class="cls-6" d="m2710.91,265.45c10.2.02,20.39.04,30.59.06,2.04,2.25.99,4.99,1,7.46.08,32.91.04,65.83.08,98.75,0,2.58-.49,5.21.51,7.73.51,7.7,2.69,15,6.44,21.65,7.36,13.04,19.5,18.06,33.77,19.13,28.31,2.12,44.9-20.67,49.74-40.26,1.26-5.09,1.72-10.24,1.7-15.5-.07-29.21-.03-58.43-.03-87.64,0-1.43-.02-2.85,0-4.28.11-7.06.11-7.1,7.22-7.16,6.89-.05,13.78.08,20.66-.03,3.32-.05,4.84,1.32,4.64,4.64-.07,1.18.01,2.37.01,3.56,0,53.91,0,107.83,0,161.74,0,8.58-.03,8.59-8.53,8.61-5.7.01-11.4-.1-17.1,0-3.29.06-4.73-1.31-4.71-4.63.04-5.22-.16-10.44-.21-15.67-.01-1.2.13-2.52-1.17-3.07-1.76-.75-2.51.75-3.34,1.86-10.04,13.52-23.37,22.35-39.75,25.62-17.09,3.41-34.06,2.37-49.87-6-15.46-8.19-24-21.83-28.88-38.04-1.84-6.11-2.96-12.45-3.37-18.87-.56-1.1-.55-2.28-.55-3.47,0-37.23,0-74.45.03-111.68,0-1.56-.65-3.38,1.13-4.54Z"/>
            <path class="cls-6" d="m1839.45,161.41c11.16-.04,22.32-.09,33.48-.09,2.1,0,4.31-.37,6.16,1.11,1.03,2.27.55,4.69.55,7.03.03,89.03.03,178.06,0,267.09,0,2.32.66,4.76-.75,6.94-13.29.73-26.58.68-39.87.03-1.32-2.46-.67-5.13-.67-7.69-.04-89.01-.04-178.01.03-267.02,0-2.46-1.15-5.23,1.09-7.41Z"/>
            <path class="cls-6" d="m2467.95,443.5c-9.23.92-18.48.18-27.72.43-3.77.1-5.07-1.79-4.86-5.27.09-1.42,0-2.85,0-4.27,0-80.43,0-160.86,0-241.28,0-9.96-.62-9.7,9.79-9.56,7.58.1,15.18-.54,22.74.43,1.47,2.17.78,4.62.78,6.93.04,81.88.04,163.76,0,245.64,0,2.32.64,4.76-.73,6.95Z"/>
            <path class="cls-6" d="m1808.32,269.33c0-1.84.57-3.83-.86-5.47-11.39-.86-22.79-.15-34.19-.4-3.41-.08-4.7,1.46-4.6,4.7.08,2.61.11,5.24-.15,7.83-.27,2.67-1.63,3.12-3.83,1.47-.57-.42-1.02-.99-1.54-1.48-17.42-16.61-38.57-20.7-61.39-17.12-27.5,4.31-47.71,20.29-62.89,42.8-21.25,31.5-20.89,77.39,3.06,109.04,16.91,22.36,38.53,37.08,67.48,38.76,21,1.22,40.24-2.62,55-19.25.82-.93,1.77-1.73,3.03-1.08,1.23.64,1.16,1.97,1.18,3.15.14,10.93-.26,21.69-3.11,32.45-10.41,39.21-60.41,43.11-81.43,22.68-5.87-5.7-10.82-11.91-14.88-18.93-.9-1.55-1.32-3.74-4.1-2.54-10.02,4.34-20.05,8.63-30.13,12.82-2.73,1.14-2.79,2.69-1.62,5,11.13,22.06,27.58,38.54,50.96,47.19,19.77,7.32,40.2,7.15,60.25,1.8,26.58-7.09,45.77-23.37,55.94-49.41,4.45-11.38,6.27-23.32,7.26-35.42.88-1.54.59-3.24.6-4.88.01-57.91.02-115.82-.01-173.74Zm-44.38,115.79c-18.79,34.66-59.59,35.82-83.12,10.28-10.89-11.82-15.46-24.65-15.42-46.06.29-16.24,7.77-33.46,25.2-45.4,22.62-15.49,57.45-12.43,73.81,19.56,10.31,20.16,10.38,41.6-.47,61.62Z"/>
            <path class="cls-6" d="m3076.27,191.21c0-2.32.67-4.76-.75-6.95-10.4-1.43-20.82-.81-31.23-.32-1.44,2.17-.75,4.61-.76,6.92-.06,17.76-.15,35.51.01,53.27.08,8.96-.78,17.96.52,26.9-.3,6.16,2.33,12.39.1,18.82-4-1.59-4.98-5.14-7.29-7.45-12.55-12.56-27.44-19.94-45.18-21.94-18.66-2.11-36.01,1.38-51.52,11.91-24.37,16.53-38.53,39.57-41.84,68.93-3.5,31.02,3.48,59.04,25.22,82.27,23.88,25.51,53.01,31.88,85.84,21.67,12.42-3.86,22.98-11.23,30.86-21.94.95-1.28,1.86-3.24,3.79-2.65,2.12.64,1.27,2.74,1.27,4.32.02,4.99.02,9.98.02,14.97,0,2.62,1.28,3.98,3.91,3.92,8.76-.19,17.55.82,26.28-.58,1.4-2.19.74-4.63.74-6.95.04-81.7.04-163.4,0-245.1Zm-43.39,205.52c-16.23,22.76-46.54,30.6-70.8,16.93-17.75-10-28.22-25.52-30.78-46.14-1.15-9.28-1.08-18.5.29-27.66,3.55-23.81,20.46-42.7,43.43-48.6,21.63-5.55,44.94,3.66,58.28,22.23,9.01,12.55,11.86,26.67,11.99,41.53-.16,15.19-3.46,29.15-12.41,41.71Z"/>
            <path class="cls-6" d="m1508.86,257.54c-51.39.02-96.65,40.13-96.66,96-.02,56.94,45.68,97.77,96.8,96.06,52.62,1.46,96.39-40.77,96.57-95.47.19-56.3-45.3-96.61-96.71-96.59Zm48.83,123.65c-9.48,19.39-25.52,30.55-47.18,31.69-16.53.87-30.37-6.19-41.57-18.35-10.7-11.61-14.98-25.57-15.1-43.85.59-20.61,9.71-39.29,31.14-50.04,26.42-13.27,60.01-2.86,73.11,26.2,8.17,18.13,8.31,36.55-.4,54.35Z"/>
            <path class="cls-6" d="m1390.65,328.72c-7.32-32.19-28.59-53.36-59.09-65.2-17.73-6.88-36.22-7.57-54.62-3.77-30.79,6.37-53.05,24.27-66.95,52.38-7.66,15.5-9.33,32.13-8.45,49.22.86,16.78,5.63,32.32,15.14,46.04,19.5,28.15,46.43,42.57,80.95,42.34,3.55-.21,7.11-.37,10.65-.65,28.8-2.26,51.32-15.92,68.19-38.82,18.17-24.66,20.7-52.9,14.19-81.54Zm-46.86,57.41c-10.18,15.97-24.79,25.79-43.84,26.72-18.18.89-33.07-6.83-44.59-21.04-9.08-11.2-13.2-23.96-12.84-33.52.11-28.76,10.19-46.91,31.69-57.94,19.5-10.01,43.83-5.13,60.17,9.24,19.83,17.45,24.01,53.62,9.41,76.54Z"/>
            <path class="cls-6" d="m1953.28,381.11c1.09-.48,2.16-.99,3.26-1.44,18-7.39,36.03-14.73,54.01-22.16,20.62-8.53,41.23-17.09,61.8-25.73,5.38-2.26,5.43-2.45,3.46-7.8-5.29-14.38-12.52-27.6-22.88-39.06-13.26-14.68-29.58-24.01-49.09-26.43-24.46-3.02-47.28,2.02-66.96,17.73-14.81,11.82-25.65,26.36-31.2,44.79-3.69,12.24-4.64,24.62-4.4,37.27.47,24.65,9.3,45.89,26.37,63.48,18.65,19.22,41.68,28.34,68.49,28.01,3.55-.21,7.1-.44,10.66-.63,28.75-1.52,49.68-16.77,67.13-38.17,1.66-2.03,1.88-3.69-.53-5.28-8.91-5.9-17.79-11.83-26.67-17.76-2.02-1.35-3.55-.71-4.86,1.08-.7.95-1.4,1.92-2.18,2.82-14.76,16.89-32.96,24.23-55.33,19.78-14.72-2.93-25-11.95-32.86-24.23-1.8-2.82-1.31-4.89,1.8-6.26Zm-6.21-31.59c-3.65,1.28-4.85.52-4.8-3.42.12-8.41,1.69-16.7,5.99-23.9,9.53-15.94,23.5-25.71,42.21-28.11,1.17-.15,2.35-.21,3.37-.3,12.79,1.42,24.35,5.01,32.43,15.68,3.48,4.6,3.3,5.46-1.88,7.65-23.35,9.85-46.75,19.59-70.13,29.37-2.4,1-4.74,2.17-7.19,3.02Z"/>
            <path class="cls-6" d="m2680.53,339.6c-4.38-30.76-19.72-54.11-46.84-69.19-17.78-9.88-37.05-12.28-57.21-9.51-33.22,4.56-55.96,22.8-70.1,52.58-4.84,10.2-7.02,21.1-7.9,32.3-1.59,20.34,1.24,40.01,11.41,57.81,17.63,30.85,44.47,46.43,79.7,46.04,6.5-.11,12.45-.13,18.3-1.2,27.12-4.98,47.56-19.61,61.09-43.5,11.5-20.32,14.85-42.22,11.56-65.34Zm-35.96,41.23c-6.98,20.6-29.81,40.85-56.9,39.38-21.74-1.18-37.42-12.42-48.39-30.53-7.65-12.63-8.89-26.84-7.97-41.22.74-11.48,3.35-22.53,10.18-32.12,11.87-16.65,27.54-26.4,53.21-26.56,23.54-.64,51.62,23.98,53.33,55.31.66,12.2.5,24.03-3.46,35.73Z"/>
          </g>
        </g>
        <path class="cls-7" d="m2564.03,866.58c.04.81.09,1.62.13,2.42.34-.83.32-1.64-.13-2.42Z"/>
        <path class="cls-7" d="m2650.39,819.18c.06.5.11.99.17,1.49.23-.53.17-1.03-.17-1.49Z"/>
        <path class="cls-7" d="m2663.31,798.61c.05-.34.1-.68.16-1.02-.25.31-.32.65-.16,1.02Z"/>
        <g>
          <path class="cls-6" d="m2415.89,617.17c.34-.99.36-1.96-.16-2.91-1.3-15.13-9.03-26.07-21.85-33.76-8.03-4.82-16.76-7.98-25.53-11.08-8.32-2.94-16.63-5.96-24.02-10.96-9.42-6.36-10.82-20.15-2.87-28.28,6.51-6.67,14.55-9.38,23.77-9.03,12.85.5,22.15,6.26,27.26,18.25.54,1.27,1.01,1.4,2.23.87,4.79-2.1,9.61-4.13,14.48-6.06,1.5-.59,1.86-1.21,1.24-2.75-2.42-5.97-5.96-11.13-10.75-15.42-8.28-7.43-17.92-11.82-29-13.02-.46-.34-.96-.4-1.49-.18-3.71,0-7.43.02-11.15.02-.53-.23-1.02-.16-1.48.16-11.57,1.47-21.43,6.24-29.62,14.66-11.03,11.33-13.07,28.37-6.94,42,4.88,10.85,13.9,17.29,24.43,21.77,7.47,3.18,15.18,5.76,22.78,8.64,6.87,2.61,13.64,5.38,19.61,9.85,13.1,9.81,12.08,30.19-1.07,38.75-7.2,4.69-15.08,6.24-23.54,5.53-5.25-.44-10.07-2.1-14.5-4.9-8.72-5.48-14.25-13.41-17.41-23.07-.59-1.81-1.27-2.12-2.98-1.38-4.66,2.01-9.36,3.93-14.1,5.74-1.66.64-2.09,1.34-1.5,3.11,3.51,10.45,9.08,19.52,17.68,26.55,8.86,7.26,18.96,11.55,30.46,12.36.94.52,1.92.49,2.91.16,1.36,0,2.72,0,4.08,0,1.15.35,2.27.36,3.38-.17,1.97.23,3.84-.37,5.75-.71,10.39-1.81,19.74-5.9,27.49-13.14,7.51-7.02,11.45-15.83,12.3-26.06.5-.94.53-1.91.16-2.9,0-.89,0-1.78.01-2.67Z"/>
          <path class="cls-6" d="m2855.01,554.64c-3.46-.76-6.97-.27-10.46-.3-2.62-.03-5.28-.42-7.89.3-.17.16-.34.31-.52.47h0c-.51.87-.34,1.83-.34,2.75,0,18.36-.01,36.73,0,55.09,0,.78.12,1.55.18,2.33-.23,6.41-2.13,12.33-5.76,17.56-4.57,6.58-10.45,11.36-18.82,12.18-2.39-.18-4.79-.29-7.18.06-6.89-.65-13.09-2.68-17.39-8.59-3.38-4.65-4.56-9.97-4.84-15.57.06-.62.18-1.24.18-1.86,0-20.56,0-41.11,0-61.67,0-.77.09-1.57-.34-2.29-.17-.16-.34-.31-.52-.47-4.56-.77-9.15-.19-13.72-.31-1.52-.04-3.11-.38-4.59.36-.1.61-.28,1.22-.28,1.83,0,23.3.02,46.6.03,69.9-.21.53-.16,1.04.19,1.5.4,2.3.69,4.62,1.22,6.89,2.67,11.3,8.88,19.8,19.71,24.58,4.41,1.95,9.06,2.81,13.82,3.27.63.44,1.29.44,1.96.13,1.36.01,2.72.02,4.09.03.84.33,1.66.33,2.44-.16,2.86-.32,5.68-.86,8.41-1.79,8.3-2.85,15.32-7.49,20.4-14.8.46-.66.95-2.03,1.95-.39-.37,4.42-.44,8.84.03,13.26.03.15.09.28.2.38,1.39.78,2.91.42,4.35.38,4.5-.12,9.01.46,13.49-.31.79-.68.49-1.6.49-2.42.02-33.3.02-66.61,0-99.91,0-.82.31-1.74-.5-2.41Z"/>
          <path class="cls-6" d="m3066.93,609.42c-4.55-4.02-9.89-6.56-15.54-8.43-8.15-2.7-16.59-4.38-24.86-6.65-3.41-.93-6.77-2.02-9.64-4.13-6.6-4.86-7.07-11.27-.51-16.69,3.76-3.1,8.23-4.72,13.13-5.01,1.76.26,3.52.29,5.27-.03,9.31.79,16.98,4.38,21.81,12.79.48.84.95,1.05,1.88.66,4.81-2.05,9.63-4.08,14.48-6.02,1.33-.53,1.31-1.13.75-2.27-2.69-5.53-6.55-10.03-11.53-13.6-7.09-5.08-15.04-7.79-23.66-8.66-.94-.5-1.91-.52-2.9-.16-1.21,0-2.41,0-3.62-.01h0c-1.14-.35-2.27-.38-3.38.16-.67.16-1.34.47-2.01.47-4.86-.02-9.45,1.24-13.85,3.08-10.68,4.49-18.53,11.49-20.3,23.67-.05.34-.1.68-.16,1.02,0,1.99-.01,3.98-.02,5.97-.16.38-.08.72.17,1.04.83,5.78,3.41,10.62,7.69,14.59,4.62,4.28,10.12,7.01,16,8.97,7.77,2.6,15.82,4.2,23.74,6.25,3.81.98,7.41,2.47,10.62,4.74,7.93,5.62,8.05,14.23.21,19.92-4.01,2.91-8.65,4.22-13.58,4.47-1.92-.38-3.84-.29-5.76-.06-4.12-.31-7.93-1.57-11.48-3.68-5.69-3.38-9.78-8.16-12.59-14.1-.44-.94-.65-2.09-2.31-1.34-4.69,2.13-9.43,4.14-14.19,6.1-1.23.51-1.48,1.01-.94,2.25,3.1,7.08,7.62,13.04,13.68,17.85,7.49,5.94,16.04,9.21,25.53,10.06.78.47,1.59.49,2.43.15,1.68,0,3.35.01,5.03.02.99.33,1.96.34,2.9-.17,6.76-.61,13.28-2.13,19.2-5.54,9.17-5.3,16.18-12.36,17.36-23.51,1.01-9.5-1.74-17.7-9.07-24.17Z"/>
          <path class="cls-6" d="m1992.05,567.29c-.02,1.52.52,2.04,2.04,2.03,4.84-.05,9.69,0,14.53.02q3.16,0,3.16,3.21c0,26.09,0,52.18.01,78.26,0,1.87-.17,3.75.24,5.6,5.82.72,11.64.49,17.46.12.27,0,.53,0,.8,0,.24.18.44.16.58-.12.08-1.56.23-3.11.23-4.67.01-26.51.04-53.03-.04-79.54,0-2.24.59-2.93,2.87-2.9,8.13.11,16.27.02,24.4,0,.58-.32.58-.88.58-1.43,0-4.84,0-9.67,0-14.51,0-.55,0-1.11-.59-1.43-8.2-.02-16.4-.09-24.61,0-2.08.02-2.72-.68-2.66-2.71.13-4.14-.02-8.28.05-12.42.18-9.87,6.8-16.95,16.06-17.25.52.23,1.04.22,1.55-.04,3.08,0,6.08.54,8.91,1.7,1.41.57,1.9.28,2.29-1.1,1.14-3.97,2.38-7.92,3.61-11.86,1.09-3.49,1.14-3.59-2.4-4.68-5.99-1.84-12.09-2.25-18.37-1.73-5.76.48-11.06,2.05-15.84,5.14-8.87,5.74-13.7,14.06-14.91,24.52-.41.62-.46,1.27-.19,1.95-.02,5.39-.1,10.78-.04,16.17.02,1.72-.5,2.33-2.26,2.3-5.15-.08-10.31.04-15.46,0-1.52-.02-2.06.5-2.04,2.03.07,4.45.07,8.9,0,13.36Z"/>
          <path class="cls-6" d="m2744.82,645.46c-1.37-3.84-1.38-3.82-5.29-2.94-.83.19-1.74.15-2.53.43-5.76,2.03-14.42-3.87-15.11-9.88-.33-2.86-.86-5.69-.86-8.59.02-16.4,0-32.79.02-49.19,0-.93.1-1.86.16-2.79.19-.09.39-.18.58-.27,7.77,0,15.54,0,23.31,0,.53.29,1.04.34,1.51-.12.42-5.81.38-11.61-.05-17.41-.85-.57-1.81-.38-2.72-.38-7.55-.02-15.09-.03-22.64-.04-.05-.93-.15-1.86-.15-2.8-.01-8.67-.08-17.33.04-26,.03-2.27-.44-3.39-2.93-3.02-1.15.17-2.34,0-3.51.04-4.19.15-8.4-.35-12.58.27-.81,4.16-.24,8.37-.33,12.55-.14,6.32-.13,12.64-.18,18.96-4.27,0-8.54-.03-12.81.05-1.68.03-3.41-.4-5.05.37-.51,5.8-.43,11.61-.05,17.41.63.52,1.3.43,1.98.12,5.11,0,10.22,0,15.33,0,.19.09.38.18.58.27.06,1.01.16,2.02.16,3.03.04,19.15.07,38.31.1,57.46-.3.68-.28,1.34.16,1.97,1.45,15.03,11.9,24.01,24.42,25.82.31.24.64.31,1.01.15h0c3.25,0,6.49.01,9.74.02.53.23,1.02.16,1.49-.17,2.78-.37,5.53-.87,8.26-1.56,1.9-.48,2.55-1.15,1.73-3.18-1.4-3.47-2.51-7.05-3.77-10.58Z"/>
          <path class="cls-6" d="m2483.95,645.53c-1.35-3.91-1.33-3.91-5.45-2.99-.53.12-1.11.11-1.61.3-6.01,2.25-14.81-3-15.92-9.97-.44-2.78-.86-5.56-.87-8.36-.03-16.49-.02-32.97,0-49.46,0-.85.11-1.71.16-2.56.19-.09.39-.18.58-.26,7.3,0,14.6,0,21.9,0,.99.34,1.97.48,2.91-.12.41-5.8.44-11.61-.04-17.41-.92-.6-1.96-.38-2.96-.38-7.47-.03-14.93-.04-22.4-.06.14.15.28.26.44.33-.16-.07-.3-.18-.44-.33-.05-2.1-.15-4.21-.16-6.31-.02-7.73,0-15.46-.02-23.19,0-.95.31-2.2-1.32-2.19-5.93.02-11.86-.35-17.78.18-.59.84-.38,1.81-.38,2.73-.02,6.95-.04,13.9,0,20.85.02,2.33-.28,4.68.23,7-.08.33-.16.65-.24.98-4.27,0-8.54-.05-12.8.02-1.68.03-3.41-.4-5.04.37-.52,5.8-.42,11.6-.06,17.41.15.28.35.3.59.12,4.8,0,9.6,0,14.4,0,.36.25.72.25,1.09,0,.26,0,.53,0,.79,0,.34.08.69.16,1.03.24,0,0,.02.03.02.03,0,19.75-.01,39.49-.01,59.24,0,.93-.09,1.88.41,2.74,1.29,15.45,11.98,24.67,24.87,26.32.31.26.66.33,1.04.17,3.09,0,6.17-.02,9.26-.03.53.23,1.02.17,1.49-.16,2.78-.37,5.53-.92,8.27-1.54,1.97-.45,2.58-1.09,1.77-3.11-1.38-3.48-2.53-7.05-3.75-10.59Z"/>
          <path class="cls-6" d="m2188.04,656.41c.36.12.72.35,1.08.35,5.68.03,11.35.03,17.03.02.31,0,.62-.05.74-.42.05-1.01.14-2.02.14-3.04.03-18.77-.19-37.55.17-56.31.22-11.36,6.13-19.81,15.79-25.51,6.72-3.96,14.12-3.4,21.46-2.17,1.49.25,2.19.17,2.65-1.46,1.44-5.03,3.02-10.02,4.68-14.98.49-1.46.02-1.97-1.25-2.37-2.77-.87-5.61-1.37-8.49-1.66-2.36-.62-4.71-.67-7.07,0-11.81,2.21-21.38,7.66-27.07,18.72-.25.48-.42,1.14-1.09,1.03-.88-.14-.66-.97-.66-1.53-.04-4.22-.11-8.45,0-12.67.05-1.9-.48-2.63-2.48-2.57-4.3.13-8.61.18-12.9-.01-2.38-.1-3.01.62-3.01,3.01.06,32.85.02,65.7.01,98.55,0,1.01-.15,2.04.24,3.02Z"/>
          <path class="cls-6" d="m2665.31,551.7c-1.52,0-3.04,0-4.56,0-.65.05-1.31.09-1.96.14-.15.03-.3.09-.46.1-13.12,1.12-23.62,6.38-29.69,18.7-.24.48-.49,1.1-1.17.9-.68-.2-.51-.89-.51-1.4-.02-4.36,0-8.73-.03-13.09,0-.81.31-1.74-.5-2.4-4.55-.77-9.14-.18-13.71-.32-1.37-.04-2.8-.37-4.11.38-.11.1-.18.23-.21.38.06.93.18,1.86.19,2.8,0,32.75,0,65.51,0,98.26,0,.93-.12,1.86-.19,2.8.03.15.09.28.2.38,6.25,0,12.5.01,18.75.02.49-.96.27-2,.27-3,.01-17.35.01-34.7,0-52.05,0-2.03.08-4.05.29-6.08,1.56-15.25,14.08-26.58,29.39-26.68,2.97-.02,5.87.6,8.83.57,1.65-.02,2.16-.47,2.14-2.11-.08-5.31-.1-10.63,0-15.94.03-1.55-.59-2.11-1.96-2.22"/>
          <path class="cls-6" d="m2979.58,612.34c0-3.56-.01-7.11-.02-10.67-.06-.5-.11-.99-.17-1.49-1.32-12.95-6.48-24.18-15.29-33.72-8.04-8.7-17.88-13.96-29.79-15.09-1.13.09-2.26.15-3.37-.17-.73,0-1.47,0-2.2,0-1.11.32-2.24.25-3.37.17-.23.05-.46.12-.69.15-12.19,1.37-22.36,6.4-29.75,16.46-.41.55-.72,1.36-1.6.99-.72-.3-.49-1.07-.51-1.66-.13-4.2.24-8.42-.3-12.61h0c-4.23-.85-8.5-.24-12.75-.35-1.68-.05-3.42-.41-5.05.35-.4.9-.24,1.85-.24,2.78-.02,47.43-.04,94.86-.05,142.29,0,1.25.11,2.51.02,3.75-.12,1.67.61,2.15,2.19,2.13,5-.07,10-.08,15,0,1.66.03,2.14-.58,2.14-2.17-.06-15-.06-30-.08-45.01h0c.28-.99.29-1.96-.19-2.89-.11-1.85-.22-3.7-.33-5.55-.04-.81-.09-1.62-.13-2.42-.14-.89-.69-2.06.36-2.51,1.17-.5,1.47.9,1.97,1.58,1.99,2.73,4.32,5.1,6.99,7.15,6.8,5.2,14.53,8.03,23.02,8.84.25.02.5.04.74.06-.25-.02-.5-.04-.74-.06.47.36.96.41,1.49.13.26,0,.53.01.79.02.21,0,.42.01.64.02,1.2,0,2.4,0,3.6,0h0c.84.33,1.65.31,2.44-.16,1.08-.14,2.17-.24,3.24-.42,15.17-2.58,25.76-11.62,33.78-24.16,4.72-7.38,7.13-15.57,8.05-24.23.03-.25.06-.5.09-.75-.03.25-.06.5-.09.75.34-.46.41-.96.18-1.49h0Zm-86.14,43.95c-.03.49-.03.97.05,1.45-.09-.48-.08-.96-.05-1.45Zm59.98-25.18c-1.08,1.48-2.22,2.87-3.43,4.15-5.24,5.54-11.72,9.05-19.84,9.78-1.49.26-2.98.38-4.46.31,1.49.07,2.97-.04,4.46-.31-2.39-.27-4.78-.24-7.17-.02-12.68-1.35-21.75-8.16-26.43-19.66-6.37-15.66-5.54-31.11,5.17-44.94,1.32-1.7,2.76-3.22,4.32-4.56,4.67-4,10.39-6.31,16.94-6.86,1.79-.37,3.59-.45,5.38-.27.6.06,1.2.14,1.79.25,13.04,1.45,21.51,8.96,26.88,20.45.93,1.99,1.63,4.03,2.14,6.11.86,3.47,1.2,7.06,1.22,10.7,0,0,0,0,0,0h0c-.28.52-.28,1.04,0,1.55.06-.17.1-.34.12-.51-.02.17-.06.34-.12.51-.09,8.45-1.92,16.4-6.97,23.33Z"/>
          <path class="cls-6" d="m2588.88,588.81c.08-3-.56-5.88-1.45-8.72-4.9-15.65-16.07-24.07-31.59-27.63-2.75-.63-6.17-.96-8.25-1.1-.61-.04-2.43-.13-2.43-.13h-5.03s-2.17.09-2.9.14c-2.08.15-5.54.52-8.28,1.13-11.09,2.46-20.22,7.98-27.3,16.9-1.24,1.57-1.3,2.39.67,3.5,4.34,2.46,8.54,5.18,12.68,7.96,1.52,1.02,2.32,1.1,3.54-.47,5.54-7.14,15.76-10.96,21.92-11.88,1.42-.21,4.32-.06,5.76-.02,2.15.06,5.74.76,8.36,1.96,8.81,4.01,15.05,10.16,16.24,20.3-.08,2.2-.15,4.41-.23,6.61-.81.1-1.51-.17-2.23-.52-3.99-1.96-8.22-3.12-12.56-4.08-2.73-.6-5.57,0-8.22-1.04-1.13.1-2.25.16-3.37-.14-.26,0-.53,0-.79-.01-.21,0-.43-.01-.64-.02-.72,0-1.45,0-2.17,0-.21,0-.43,0-.64.01-.26,0-.53,0-.79.01-.95.29-1.93.24-2.9.14-.75.16-1.5.47-2.25.47-5.09-.02-9.94,1.23-14.58,3.1-12.27,4.95-20.68,13.25-22.6,26.95-.41.62-.46,1.27-.21,1.96,0,0,0,0,0,0,.01,1.99.03,3.99.04,5.98-.24.53-.16,1.02.17,1.48,1.28,8.97,5.55,16.19,12.58,21.89,6.76,5.48,14.52,8.29,23.09,9.1.78.48,1.6.47,2.43.16,1.2,0,2.41,0,3.61,0,.99.35,1.96.34,2.9-.18,1.83-.33,3.68-.57,5.49-1.01,9.22-2.22,16.09-7.81,21.7-15.21.49-.65.69-1.96,2.05-1.2.8,4.54.27,9.11.28,13.66.16.16.32.33.48.49,5.94-.02,11.88-.05,17.82-.07,0,0,.02-.02.02-.02.02-22.68.03-45.35.05-68.03-.61-.73-.51-1.6-.49-2.45Zm-28.66,48.44c-.96.87-1.96,1.68-2.98,2.43-4.44,3.26-9.47,5.4-15.23,5.79-1.56.36-3.12.45-4.68.27,1.56.18,3.12.09,4.68-.27-2.08-.23-4.16-.23-6.24,0-8.37-.52-16.6-6.42-18.5-13.25-2.31-8.28,1.39-16.17,9.5-20.79,7.39-4.21,15.39-4.87,23.59-4.24,6.51.5,12.77,1.99,18.4,5.58,1.25.8,1.8,1.6,1.85,3.14.31,8.98-4.09,15.69-10.39,21.34Z"/>
          <path class="cls-6" d="m2172.23,599.82c-.41-6.16-1.2-12.12-3.56-17.79-7.14-17.15-19.47-28.3-37.79-32.56-2.83-.66-5.76-.05-8.51-1.09-2.51-.6-5.03-.6-7.54,0-1.06.16-2.12.39-3.19.48-14.07,1.17-25.39,7.62-34.37,18.25-7.2,8.53-11.02,18.55-12.2,29.61-.33.46-.4.96-.18,1.48,0,3.87-.01,7.74-.02,11.6-.22.53-.15,1.03.19,1.5.06.31.15.61.19.92,1.63,14.8,8.08,27.02,19.65,36.42,8.02,6.52,17.34,9.98,27.59,11.01.62.41,1.27.44,1.95.17,2.78,0,5.55,0,8.33.01.68.26,1.34.23,1.96-.18.31-.06.61-.15.92-.19,18.02-1.93,31.12-11.41,40.03-26.77,5.87-10.12,7.32-21.25,6.55-32.89Zm-18.87,6.35c.16-1.91.07-3.82-.23-5.73-.3,2.54-.28,5.09-.02,7.63-.6,15.75-11.17,29.46-25.39,33.16-22,5.73-40.6-9.53-43.18-29.69-.06-.49-.12-.97-.16-1.46-.14-1.46-.23-2.91-.32-4.37.39-1.14.37-2.28.01-3.42-.1.36-.15.72-.19,1.08.03-.36.09-.72.19-1.08.3-10.73,3.77-20.11,11.78-27.51,1.79-1.66,3.68-3.1,5.67-4.31,4.38-2.67,9.25-4.22,14.67-4.48,1.2-.32,2.41-.38,3.62-.24-1.21-.15-2.41-.08-3.62.24,1.61.27,3.22.3,4.82-.03,14.72.74,28.09,12.47,31.12,27.3.12.59.24,1.18.36,1.78.34,1.78.62,3.56.64,5.39.3,1.91.39,3.82.23,5.73Z"/>
        </g>
      </g>
    </g>
  </g>
</svg>