<svg width="19" height="20" viewBox="0 0 19 20" fill="none" xmlns="http://www.w3.org/2000/svg">
<rect x="0.474609" y="3.05176e-05" width="18.5263" height="19.2632" rx="2.31579" fill="#F0DB4E"/>
<path d="M9.54657 10.5264H10.9545V15.2237C10.9545 15.658 10.8569 16.0351 10.6617 16.3553C10.4687 16.6755 10.2001 16.9222 9.85578 17.0955C9.51148 17.2687 9.11126 17.3553 8.65512 17.3553C8.24942 17.3553 7.881 17.284 7.54986 17.1415C7.22091 16.9968 6.95994 16.7775 6.76696 16.4836C6.57398 16.1876 6.47858 15.8158 6.48078 15.3685H7.89854C7.90293 15.5461 7.93911 15.6985 8.00709 15.8257C8.07727 15.9507 8.17266 16.0472 8.29328 16.1152C8.41608 16.181 8.56082 16.2139 8.72749 16.2139C8.90293 16.2139 9.05095 16.1766 9.17157 16.102C9.29437 16.0253 9.38758 15.9134 9.45117 15.7665C9.51477 15.6196 9.54657 15.4387 9.54657 15.2237V10.5264ZM15.7867 12.4639C15.7604 12.1985 15.6474 11.9924 15.4479 11.8455C15.2483 11.6985 14.9775 11.6251 14.6354 11.6251C14.4029 11.6251 14.2067 11.658 14.0466 11.7237C13.8865 11.7873 13.7637 11.8762 13.6781 11.9902C13.5948 12.1042 13.5531 12.2336 13.5531 12.3783C13.5488 12.499 13.574 12.6042 13.6288 12.6941C13.6858 12.784 13.7637 12.8619 13.8624 12.9277C13.961 12.9913 14.0751 13.0472 14.2045 13.0955C14.3338 13.1415 14.472 13.181 14.6189 13.2139L15.2242 13.3586C15.5181 13.4244 15.7878 13.5121 16.0334 13.6218C16.279 13.7314 16.4917 13.8663 16.6716 14.0264C16.8514 14.1865 16.9906 14.3751 17.0893 14.5922C17.1902 14.8093 17.2417 15.0582 17.2439 15.3389C17.2417 15.7512 17.1365 16.1086 16.9281 16.4112C16.722 16.7117 16.4238 16.9452 16.0334 17.1119C15.6453 17.2764 15.177 17.3586 14.6288 17.3586C14.0849 17.3586 13.6113 17.2753 13.2078 17.1086C12.8064 16.9419 12.4928 16.6952 12.267 16.3685C12.0433 16.0395 11.926 15.6327 11.915 15.1481H13.2933C13.3086 15.374 13.3733 15.5626 13.4874 15.7139C13.6036 15.863 13.7582 15.9759 13.9512 16.0527C14.1463 16.1272 14.3667 16.1645 14.6124 16.1645C14.8536 16.1645 15.063 16.1294 15.2406 16.0593C15.4205 15.9891 15.5597 15.8915 15.6584 15.7665C15.7571 15.6415 15.8064 15.4979 15.8064 15.3356C15.8064 15.1843 15.7615 15.0571 15.6716 14.954C15.5838 14.8509 15.4545 14.7632 15.2834 14.6908C15.1145 14.6185 14.9073 14.5527 14.6617 14.4935L13.9281 14.3093C13.3602 14.1711 12.9117 13.9551 12.5828 13.6612C12.2538 13.3674 12.0904 12.9715 12.0926 12.4737C12.0904 12.0658 12.199 11.7095 12.4183 11.4047C12.6398 11.0998 12.9435 10.8619 13.3295 10.6908C13.7154 10.5198 14.154 10.4343 14.6453 10.4343C15.1453 10.4343 15.5817 10.5198 15.9545 10.6908C16.3295 10.8619 16.6211 11.0998 16.8295 11.4047C17.0378 11.7095 17.1453 12.0626 17.1518 12.4639H15.7867Z" fill="#424244"/>
</svg>
