<svg width="18" height="18" viewBox="0 0 18 18" fill="none" xmlns="http://www.w3.org/2000/svg">
<g id="LinkedIn">
<path id="Vector" d="M4.94393 3.68888C4.94373 4.07614 4.78857 4.44747 4.51257 4.72117C4.23656 4.99487 3.86233 5.14852 3.4722 5.14833C3.08207 5.14813 2.708 4.99411 2.43228 4.72013C2.15655 4.44616 2.00176 4.07468 2.00195 3.68742C2.00215 3.30015 2.15731 2.92883 2.43332 2.65513C2.70932 2.38143 3.08355 2.22777 3.47368 2.22797C3.86381 2.22816 4.23788 2.38219 4.51361 2.65616C4.78933 2.93013 4.94412 3.30161 4.94393 3.68888ZM4.98806 6.22959H2.04608V15.3703H4.98806V6.22959ZM9.63638 6.22959H6.70911V15.3703H9.60696V10.5736C9.60696 7.90149 13.1153 7.65326 13.1153 10.5736V15.3703H16.0205V9.5807C16.0205 5.07605 10.8279 5.24397 9.60696 7.45614L9.63638 6.22959Z" fill="black"/>
</g>
</svg>
