<svg width="18" height="18" viewBox="0 0 18 18" fill="none" xmlns="http://www.w3.org/2000/svg">
<g id="Medium">
<path id="path857" d="M9.52169 9.21002C9.52169 11.5381 7.64727 13.4254 5.33499 13.4254C3.02271 13.4254 1.14844 11.5387 1.14844 9.21002C1.14844 6.8814 3.02286 4.99475 5.33499 4.99475C7.64713 4.99475 9.52169 6.88196 9.52169 9.21002ZM14.1146 9.21002C14.1146 11.4016 13.1773 13.1781 12.0212 13.1781C10.8651 13.1781 9.92785 11.401 9.92785 9.21002C9.92785 7.01901 10.8651 5.24197 12.0212 5.24197C13.1773 5.24197 14.1146 7.01901 14.1146 9.21002ZM15.9931 9.21002C15.9931 11.1736 15.6634 12.7652 15.2568 12.7652C14.8502 12.7652 14.5206 11.173 14.5206 9.21002C14.5206 7.24704 14.8502 5.65481 15.257 5.65481C15.6637 5.65481 15.9931 7.24661 15.9931 9.21002Z" fill="black"/>
</g>
</svg>
