<svg width="52" height="6" viewBox="0 0 52 6" fill="none" xmlns="http://www.w3.org/2000/svg">
<path id="Vector" d="M0 5.81887H0.928202V3.88159H2.29162C2.34297 3.88159 2.41101 3.87902 2.49575 3.87388C2.58305 3.86875 2.66264 3.86105 2.73454 3.85078C3.21212 3.77631 3.56645 3.57732 3.79754 3.2538C4.03119 2.92771 4.14802 2.53614 4.14802 2.0791C4.14802 1.6195 4.03248 1.22793 3.80139 0.904409C3.57287 0.578319 3.21725 0.378043 2.73454 0.303581C2.66264 0.290743 2.58433 0.283041 2.4996 0.280473C2.41487 0.275338 2.34554 0.272769 2.29162 0.272769H0V5.81887ZM0.928202 3.01501V1.1432H2.2531C2.30446 1.1432 2.36223 1.14577 2.42642 1.1509C2.49061 1.15604 2.54967 1.16502 2.60359 1.17786C2.75764 1.21638 2.87832 1.2857 2.96562 1.38584C3.05549 1.48341 3.1184 1.59382 3.15435 1.71707C3.19286 1.84031 3.21212 1.96099 3.21212 2.0791C3.21212 2.19722 3.19286 2.31789 3.15435 2.44114C3.1184 2.56439 3.05549 2.6748 2.96562 2.77237C2.87832 2.86994 2.75764 2.93798 2.60359 2.97649C2.54967 2.9919 2.49061 3.00217 2.42642 3.00731C2.36223 3.01244 2.30446 3.01501 2.2531 3.01501H0.928202ZM7.65035 5.93442C8.20496 5.93442 8.67997 5.81374 9.07539 5.57238C9.47337 5.32845 9.77764 4.98952 9.98818 4.55559C10.2013 4.12166 10.3079 3.6184 10.3079 3.04582C10.3079 2.47067 10.2013 1.96741 9.98818 1.53605C9.77764 1.10212 9.47337 0.764473 9.07539 0.523115C8.67997 0.279189 8.20496 0.157227 7.65035 0.157227C7.0983 0.157227 6.62329 0.279189 6.22531 0.523115C5.82989 0.764473 5.52562 1.10212 5.31251 1.53605C5.10196 1.96741 4.99669 2.47067 4.99669 3.04582C4.99669 3.6184 5.10196 4.12166 5.31251 4.55559C5.52562 4.98952 5.82989 5.32845 6.22531 5.57238C6.62329 5.81374 7.0983 5.93442 7.65035 5.93442ZM7.65035 5.06013C7.09317 5.05243 6.67464 4.86628 6.39477 4.50167C6.1149 4.13707 5.97625 3.65178 5.97881 3.04582C5.98138 2.64013 6.04429 2.2858 6.16753 1.98282C6.29078 1.67984 6.47565 1.4449 6.72214 1.278C6.96864 1.10854 7.27804 1.02637 7.65035 1.03151C8.21009 1.03921 8.62862 1.22536 8.90592 1.58997C9.18579 1.95457 9.32573 2.43986 9.32573 3.04582C9.32573 3.44894 9.26282 3.80327 9.13701 4.10882C9.01376 4.4118 8.82761 4.64674 8.57855 4.81364C8.33205 4.98054 8.02265 5.0627 7.65035 5.06013ZM12.3973 5.81887H13.3139L14.4462 1.87498L15.5786 5.81887H16.4952L18.1128 0.272769H17.1384L16.0369 4.27829L14.9315 0.272769L13.9571 0.280473L12.8556 4.27829L11.7502 0.272769H10.7758L12.3973 5.81887ZM19.1264 5.81887H22.7083V4.94844H20.0546V3.3809H22.2461V2.51047H20.0546V1.1432H22.7083V0.272769H19.1264V5.81887ZM24.0174 5.81887H24.9456V3.88159H26.2628L27.2026 5.81887H28.2541L27.2296 3.71597C27.5454 3.57475 27.7803 3.36036 27.9344 3.07278C28.0884 2.78521 28.1655 2.45398 28.1655 2.0791C28.1655 1.6195 28.0499 1.22793 27.8188 0.904409C27.5903 0.578319 27.2347 0.378043 26.752 0.303581C26.6801 0.290743 26.6018 0.283041 26.517 0.280473C26.4323 0.275338 26.363 0.272769 26.3091 0.272769H24.0174V5.81887ZM24.9456 3.01501V1.1432H26.2705C26.3219 1.1432 26.3797 1.14577 26.4439 1.1509C26.5081 1.15604 26.5671 1.16502 26.621 1.17786C26.7751 1.21638 26.8958 1.2857 26.9831 1.38584C27.0729 1.48341 27.1358 1.59382 27.1718 1.71707C27.2103 1.84031 27.2296 1.96099 27.2296 2.0791C27.2296 2.19722 27.2103 2.31789 27.1718 2.44114C27.1358 2.56439 27.0729 2.6748 26.9831 2.77237C26.8958 2.86994 26.7751 2.93798 26.621 2.97649C26.5671 2.9919 26.5081 3.00217 26.4439 3.00731C26.3797 3.01244 26.3219 3.01501 26.2705 3.01501H24.9456ZM29.4877 5.81887H33.0696V4.94844H30.4159V3.3809H32.6074V2.51047H30.4159V1.1432H33.0696V0.272769H29.4877V5.81887ZM34.3788 5.81887H36.1466C36.1902 5.81887 36.2814 5.81759 36.42 5.81502C36.5613 5.81245 36.6948 5.80347 36.8206 5.78806C37.2622 5.73157 37.6345 5.57623 37.9375 5.32203C38.2405 5.06527 38.4703 4.73918 38.6269 4.34376C38.7836 3.94835 38.8619 3.5157 38.8619 3.04582C38.8619 2.57594 38.7836 2.14329 38.6269 1.74788C38.4703 1.35246 38.2405 1.02637 37.9375 0.769608C37.6345 0.512844 37.2622 0.357502 36.8206 0.303581C36.6922 0.288175 36.5587 0.279189 36.42 0.276621C36.284 0.274053 36.1928 0.272769 36.1466 0.272769H34.3788V5.81887ZM35.3224 4.94459V1.14705H36.1466C36.2236 1.14705 36.3212 1.14962 36.4393 1.15475C36.5574 1.15732 36.664 1.16888 36.759 1.18942C37.0157 1.2382 37.2263 1.35246 37.3906 1.5322C37.5549 1.71193 37.6769 1.93403 37.7565 2.1985C37.8387 2.4604 37.8797 2.74284 37.8797 3.04582C37.8797 3.33596 37.8412 3.61327 37.7642 3.87774C37.6872 4.1422 37.5652 4.36687 37.3983 4.55174C37.234 4.73404 37.0209 4.85087 36.759 4.90222C36.664 4.9202 36.5574 4.93175 36.4393 4.93689C36.3212 4.94202 36.2236 4.94459 36.1466 4.94459H35.3224ZM42.0848 5.81887H44.5073C45.0542 5.81887 45.4689 5.66738 45.7513 5.3644C46.0337 5.06142 46.175 4.66343 46.175 4.17045C46.175 3.89057 46.1056 3.63638 45.967 3.40786C45.8309 3.17934 45.6293 3.00859 45.3623 2.89561C45.5343 2.79291 45.6691 2.64784 45.7667 2.4604C45.8668 2.27039 45.9169 2.04958 45.9169 1.79795C45.9169 1.54889 45.8579 1.30753 45.7398 1.07387C45.6243 0.840218 45.4458 0.648929 45.2044 0.500005C44.9657 0.348515 44.6588 0.272769 44.2839 0.272769H42.0848V5.81887ZM43.0245 2.48736V1.13935H44.2723C44.4932 1.13935 44.6652 1.20354 44.7884 1.33192C44.9117 1.4603 44.9734 1.62078 44.9734 1.81335C44.9734 2.03417 44.9053 2.20235 44.7692 2.31789C44.6357 2.43087 44.47 2.48736 44.2723 2.48736H43.0245ZM43.0245 4.94459V3.35394H44.4187C44.678 3.35394 44.8796 3.42968 45.0234 3.58117C45.1672 3.73266 45.239 3.9201 45.239 4.14349C45.239 4.38998 45.1582 4.58512 44.9964 4.72891C44.8372 4.8727 44.6357 4.94459 44.3917 4.94459H43.0245ZM48.4442 5.81887H49.3839V3.54651L51.2673 0.272769H50.185L48.9141 2.48351L47.6392 0.272769H46.557L48.4442 3.54651V5.81887Z" fill="#1D1D1E" fill-opacity="0.7"/>
</svg>
