<svg width="81" height="22" viewBox="0 0 81 22" fill="none" xmlns="http://www.w3.org/2000/svg">
<path d="M4.44959 2.72563C4.82469 3.0412 5.07324 3.48312 5.14907 3.96929H3.7389C3.70704 3.78234 3.60811 3.61367 3.4609 3.4953C3.30632 3.37593 3.11529 3.31448 2.9206 3.3215C2.7824 3.31115 2.64502 3.35033 2.53275 3.4321C2.48787 3.47083 2.45255 3.51955 2.4296 3.57439C2.40664 3.62923 2.39667 3.6887 2.40047 3.74809C2.40068 3.82373 2.42403 3.89747 2.46736 3.95926C2.51068 4.02105 2.57188 4.0679 2.6426 4.09342C2.88827 4.19494 3.14371 4.27058 3.40485 4.31913C3.71878 4.38995 4.02802 4.48041 4.33077 4.58998C4.57381 4.68483 4.789 4.84014 4.95627 5.0414C5.14505 5.28019 5.2393 5.58092 5.22081 5.88555C5.22689 6.15435 5.14842 6.4182 4.99662 6.63941C4.82635 6.87312 4.59286 7.05255 4.32404 7.15628C3.99915 7.28674 3.65141 7.3497 3.30173 7.34137C2.73523 7.36795 2.17536 7.20962 1.70548 6.88995C1.50493 6.73861 1.33681 6.54804 1.21122 6.32968C1.08563 6.11131 1.00515 5.86966 0.974609 5.61921H2.42737C2.43544 5.71638 2.46425 5.81065 2.51185 5.89557C2.55944 5.98049 2.62469 6.05407 2.70313 6.11126C2.88283 6.22876 3.09436 6.28712 3.30845 6.27828C3.44806 6.28878 3.58649 6.24608 3.6963 6.15865C3.73973 6.11922 3.77406 6.07071 3.79691 6.01652C3.81976 5.96232 3.83057 5.90376 3.82858 5.84492C3.83137 5.76525 3.80931 5.6867 3.76548 5.62031C3.72165 5.55391 3.65825 5.50301 3.58421 5.47476C3.32896 5.37651 3.06565 5.30098 2.79729 5.24905C2.49268 5.18873 2.19294 5.10574 1.90052 5.00077C1.66401 4.91188 1.45406 4.76346 1.29072 4.56967C1.10815 4.33771 1.01785 4.04565 1.03738 3.75035C1.03178 3.54355 1.07427 3.3383 1.16146 3.15098C1.24866 2.96366 1.37814 2.79945 1.53957 2.67146C1.95092 2.37266 2.45245 2.22669 2.95871 2.25842C3.49488 2.23206 4.02301 2.39757 4.44959 2.72563Z" fill="black"/>
<path d="M11.0357 2.3197V7.28529H9.52015V6.38245C9.37759 6.66859 9.15563 6.90694 8.8812 7.06861C8.58624 7.24408 8.24849 7.33319 7.90596 7.32591C7.65414 7.3371 7.40297 7.29211 7.17042 7.19417C6.93788 7.09623 6.72971 6.94777 6.56081 6.75939C6.21421 6.32052 6.04023 5.76854 6.07207 5.20877V2.3197H7.57192V5.01015C7.55384 5.29606 7.64713 5.5778 7.83198 5.79561C7.92146 5.89051 8.03036 5.96469 8.15114 6.01301C8.27192 6.06134 8.40169 6.08266 8.53146 6.07549C8.6661 6.08261 8.80067 6.06004 8.92575 6.00936C9.05082 5.95868 9.1634 5.88111 9.2556 5.78207C9.44477 5.54699 9.5392 5.24888 9.52015 4.94695V2.3197H11.0357Z" fill="black"/>
<path d="M16.3206 2.56589C16.651 2.78063 16.9145 3.08498 17.0806 3.4439C17.2634 3.87166 17.3577 4.33246 17.3577 4.79815C17.3577 5.26383 17.2634 5.72463 17.0806 6.1524C16.9152 6.5136 16.6518 6.82033 16.3206 7.03717C15.9948 7.24198 15.6173 7.34778 15.2333 7.34188C14.8913 7.34885 14.5545 7.25722 14.2625 7.0778C13.998 6.91249 13.7918 6.66774 13.6729 6.37811V7.28094H12.1641V0.706055H13.6729V3.21819C13.7917 2.92788 13.9979 2.68237 14.2625 2.51624C14.5552 2.33919 14.8919 2.24992 15.2333 2.25893C15.6176 2.25266 15.9955 2.35934 16.3206 2.56589ZM13.9688 3.92014C13.7715 4.17098 13.6641 4.48157 13.6641 4.80153C13.6641 5.1215 13.7715 5.43209 13.9688 5.68292C14.1769 5.89243 14.4592 6.01012 14.7535 6.01012C15.0478 6.01012 15.33 5.89243 15.5382 5.68292C15.7286 5.42652 15.8316 5.11494 15.8316 4.79476C15.8316 4.47458 15.7286 4.163 15.5382 3.9066C15.3286 3.69982 15.0469 3.584 14.7535 3.584C14.4601 3.584 14.1784 3.69982 13.9688 3.9066V3.92014Z" fill="black"/>
<path d="M21.5165 2.72601C21.8916 3.04187 22.1408 3.48351 22.2182 3.96966H20.8081C20.7754 3.783 20.6766 3.6146 20.5301 3.49567C20.3746 3.37631 20.1829 3.31489 19.9875 3.32187C19.8494 3.31192 19.7121 3.35105 19.5997 3.43247C19.5552 3.47154 19.5202 3.52031 19.4972 3.57507C19.4743 3.62983 19.4641 3.68913 19.4674 3.74846C19.4676 3.8241 19.4909 3.89784 19.5343 3.95963C19.5776 4.02143 19.6388 4.06827 19.7095 4.0938C19.9553 4.19498 20.2107 4.27061 20.4718 4.3195C20.7858 4.39003 21.095 4.48049 21.3977 4.59036C21.6417 4.6846 21.8577 4.83998 22.0254 5.04177C22.2125 5.28139 22.3058 5.58171 22.2877 5.88592C22.2938 6.15472 22.2153 6.41857 22.0635 6.63978C21.8967 6.87223 21.6672 7.05161 21.4022 7.15666C21.0774 7.28754 20.7296 7.35051 20.3799 7.34174C19.8134 7.36768 19.2538 7.2094 18.7836 6.89032C18.5831 6.73898 18.4149 6.54841 18.2893 6.33005C18.1638 6.11169 18.0833 5.87003 18.0527 5.61958H19.5077C19.5138 5.71617 19.5411 5.81019 19.5876 5.89489C19.6342 5.97958 19.6988 6.05283 19.7768 6.10937C19.9555 6.22725 20.1664 6.28567 20.3799 6.2764C20.5195 6.28734 20.6581 6.2446 20.7677 6.15677C20.8115 6.11763 20.8461 6.06917 20.869 6.01491C20.8918 5.96064 20.9024 5.90193 20.9 5.84303C20.9029 5.76363 20.8812 5.68528 20.8378 5.61892C20.7944 5.55256 20.7315 5.5015 20.6579 5.47287C20.4019 5.37436 20.1378 5.29883 19.8687 5.24717C19.5642 5.18627 19.2645 5.10329 18.9719 4.99889C18.7361 4.90993 18.5269 4.76149 18.3644 4.56779C18.1831 4.33851 18.0921 4.05004 18.1088 3.75749C18.1026 3.55062 18.1449 3.34519 18.2321 3.15778C18.3194 2.97037 18.4491 2.80623 18.611 2.67861C19.022 2.37912 19.5238 2.23308 20.0301 2.26556C20.5641 2.23737 21.0907 2.40049 21.5165 2.72601Z" fill="black"/>
<path d="M25.9987 5.97046V7.27505H25.3261C24.8401 7.30482 24.3605 7.15111 23.981 6.84395C23.6626 6.5573 23.5012 6.08106 23.5012 5.41973V3.60052H22.8398V2.32076H23.5012V1.10645H25.01V2.32076H25.9965V3.60052H25.01V5.44682C25.002 5.51909 25.0083 5.59225 25.0287 5.66202C25.0491 5.73178 25.0832 5.79674 25.1289 5.85309C25.2425 5.94305 25.3863 5.98512 25.5302 5.97046H25.9987Z" fill="black"/>
<path d="M29.1665 2.53412C29.4589 2.36013 29.7932 2.27034 30.1328 2.27456V3.8974H29.7001C29.3707 3.87762 29.0441 3.96895 28.772 4.15696C28.6526 4.26526 28.5603 4.40042 28.5026 4.55143C28.445 4.70243 28.4236 4.86502 28.4402 5.02594V7.28302H26.9336V2.31744H28.4402V3.24962C28.6218 2.95594 28.8709 2.71055 29.1665 2.53412Z" fill="black"/>
<path d="M33.6939 2.51747C33.9594 2.68512 34.1681 2.92987 34.2925 3.21942V2.31659H35.7856V7.28218H34.288V6.37934C34.1635 6.66821 33.9547 6.9122 33.6894 7.07904C33.3968 7.25608 33.06 7.34535 32.7187 7.33635C32.3339 7.3423 31.9557 7.23651 31.6291 7.03164C31.2992 6.81401 31.0366 6.50744 30.8713 6.14686C30.6869 5.7195 30.5918 5.25855 30.5918 4.79261C30.5918 4.32668 30.6869 3.86572 30.8713 3.43836C31.0373 3.08008 31.2999 2.77588 31.6291 2.56036C31.955 2.35374 32.3336 2.24708 32.7187 2.25339C33.0622 2.24556 33.4007 2.33722 33.6939 2.51747ZM32.4227 3.91009C32.2323 4.16649 32.1293 4.47807 32.1293 4.79826C32.1293 5.11844 32.2323 5.43002 32.4227 5.68642C32.6309 5.89592 32.9131 6.01361 33.2074 6.01361C33.5017 6.01361 33.784 5.89592 33.9921 5.68642C34.1894 5.43558 34.2968 5.12499 34.2968 4.80503C34.2968 4.48506 34.1894 4.17447 33.9921 3.92364C33.7826 3.71686 33.5008 3.60103 33.2074 3.60103C32.914 3.60103 32.6323 3.71686 32.4227 3.92364V3.91009Z" fill="black"/>
<path d="M39.7038 5.97046V7.27505H39.0312C38.5452 7.30482 38.0656 7.15111 37.6861 6.84395C37.3655 6.5573 37.2063 6.08106 37.2063 5.41973V3.60052H36.5449V2.32076H37.2063V1.10645H38.6994V2.32076H39.6859V3.60052H38.6994V5.44682C38.6838 5.51884 38.6865 5.59365 38.7071 5.66438C38.7277 5.73511 38.7657 5.79949 38.8175 5.85161C38.8692 5.90373 38.9332 5.94193 39.0034 5.96269C39.0737 5.98346 39.148 5.98613 39.2195 5.97046H39.7038Z" fill="black"/>
<path d="M45.2651 5.07092H41.8551C41.8383 5.36947 41.9399 5.66253 42.1376 5.88573C42.3173 6.04401 42.5516 6.12505 42.79 6.11143C42.9881 6.11817 43.1828 6.05864 43.3437 5.94215C43.4878 5.83505 43.5907 5.68119 43.6352 5.50654H45.2314C45.1695 5.8493 45.0239 6.17119 44.8077 6.44323C44.586 6.7222 44.3017 6.94422 43.9782 7.09101C43.6258 7.24894 43.2429 7.32604 42.8572 7.31671C42.4111 7.32546 41.97 7.22065 41.5749 7.01201C41.2031 6.80962 40.8984 6.50203 40.6983 6.12723C40.4768 5.71144 40.3671 5.24461 40.3799 4.77299C40.3683 4.30203 40.4764 3.8359 40.6938 3.41874C40.8935 3.0454 41.1985 2.73991 41.5704 2.54073C41.9702 2.34037 42.4107 2.23608 42.8572 2.23608C43.3038 2.23608 43.7443 2.34037 44.1441 2.54073C44.5088 2.73698 44.8082 3.0368 45.005 3.40294C45.2139 3.788 45.3191 4.22145 45.3099 4.66013C45.3096 4.79828 45.2946 4.936 45.2651 5.07092ZM43.5253 3.70087C43.3407 3.53544 43.0998 3.44812 42.8528 3.45711C42.6004 3.44898 42.3543 3.53773 42.1645 3.70538C41.9708 3.89731 41.8604 4.15858 41.8573 4.43217H43.7787C43.7922 4.29903 43.7765 4.16454 43.7327 4.03817C43.689 3.91181 43.6182 3.79667 43.5253 3.70087Z" fill="black"/>
<path d="M51.5369 7.17554V8.65844H46.0801V7.17554H51.5369Z" fill="#18FFB2"/>
<path d="M5.32059 14.0836C5.65094 14.2978 5.9138 14.6024 6.07836 14.9616C6.26275 15.389 6.35789 15.8499 6.35789 16.3159C6.35789 16.7818 6.26275 17.2428 6.07836 17.6701C5.91515 18.0314 5.65209 18.3378 5.32059 18.5526C4.99533 18.7588 4.61759 18.8655 4.23326 18.8596C3.89194 18.8686 3.55517 18.7793 3.26251 18.6023C2.99793 18.4371 2.79166 18.1923 2.67288 17.9026V18.8054H1.16406V12.2373H2.67288V14.7494C2.791 14.4587 2.99737 14.213 3.26251 14.0475C3.55469 13.8689 3.8915 13.778 4.23326 13.7857C4.61669 13.7771 4.99437 13.8806 5.32059 14.0836ZM2.96657 15.4379C2.77039 15.6892 2.66374 15.9996 2.66374 16.3192C2.66374 16.6389 2.77039 16.9493 2.96657 17.2006C3.17469 17.4101 3.45694 17.5278 3.75124 17.5278C4.04555 17.5278 4.3278 17.4101 4.53592 17.2006C4.72778 16.9448 4.83158 16.633 4.83158 16.3125C4.83158 15.9919 4.72778 15.6801 4.53592 15.4243C4.43594 15.3183 4.3146 15.2351 4.18004 15.1802C4.04547 15.1253 3.9008 15.1 3.75573 15.1061C3.60879 15.1006 3.46239 15.1268 3.32631 15.1828C3.19022 15.2389 3.06758 15.3235 2.96657 15.4311V15.4379Z" fill="black"/>
<path d="M12.1217 13.8381V18.8037H10.6039V17.9009C10.4658 18.1883 10.2467 18.4285 9.97393 18.5915C9.6799 18.7673 9.34279 18.8564 9.00093 18.8489C8.74885 18.8604 8.49738 18.8153 8.26473 18.717C8.03208 18.6186 7.82408 18.4694 7.65578 18.2801C7.30308 17.8405 7.12564 17.2845 7.15807 16.7204V13.8381H8.65792V16.5286C8.64079 16.8144 8.73396 17.0958 8.91798 17.314C9.11152 17.4964 9.3674 17.5968 9.63249 17.5943C9.89758 17.5917 10.1515 17.4865 10.3416 17.3005C10.5318 17.066 10.6263 16.7674 10.6062 16.4654V13.8381H12.1217Z" fill="black"/>
<path d="M13.3675 11.8737C13.5534 11.7261 13.7832 11.6459 14.0199 11.6459C14.2566 11.6459 14.4864 11.7261 14.6723 11.8737C14.7488 11.9461 14.8099 12.0335 14.8516 12.1305C14.8933 12.2276 14.9148 12.3322 14.9148 12.4379C14.9148 12.5437 14.8933 12.6483 14.8516 12.7453C14.8099 12.8424 14.7488 12.9298 14.6723 13.0022C14.4859 13.1486 14.2563 13.2282 14.0199 13.2282C13.7835 13.2282 13.5539 13.1486 13.3675 13.0022C13.2909 12.9298 13.2299 12.8424 13.1882 12.7453C13.1465 12.6483 13.125 12.5437 13.125 12.4379C13.125 12.3322 13.1465 12.2276 13.1882 12.1305C13.2299 12.0335 13.2909 11.9461 13.3675 11.8737ZM14.7687 13.8373V18.8029H13.2621V13.8373H14.7687Z" fill="black"/>
<path d="M17.4011 12.2236V18.7917H15.8945V12.2236H17.4011Z" fill="black"/>
<path d="M21.3616 14.0338C21.6262 14.2 21.8324 14.4455 21.9512 14.7358V12.2236H23.4555V18.7917H21.949V17.8889C21.8294 18.1781 21.6233 18.4227 21.3593 18.5886C21.0667 18.7657 20.7299 18.8549 20.3886 18.8459C20.0035 18.8522 19.6249 18.7456 19.299 18.5389C18.9681 18.3234 18.7052 18.0173 18.5413 17.6564C18.3569 17.2291 18.2617 16.7681 18.2617 16.3022C18.2617 15.8362 18.3569 15.3753 18.5413 14.9479C18.7065 14.5892 18.9692 14.2848 19.299 14.0699C19.6249 13.8633 20.0035 13.7567 20.3886 13.763C20.732 13.7576 21.0697 13.8516 21.3616 14.0338ZM20.0927 15.4264C19.9022 15.6828 19.7992 15.9944 19.7992 16.3146C19.7992 16.6348 19.9022 16.9464 20.0927 17.2028C20.3008 17.4123 20.583 17.53 20.8773 17.53C21.1716 17.53 21.4539 17.4123 21.662 17.2028C21.8593 16.9519 21.9667 16.6413 21.9667 16.3214C21.9667 16.0014 21.8593 15.6908 21.662 15.44C21.4525 15.2332 21.1708 15.1174 20.8773 15.1174C20.5839 15.1174 20.3022 15.2332 20.0927 15.44V15.4264Z" fill="black"/>
<path d="M29.2144 16.5885H25.8022C25.7903 16.8829 25.8915 17.1707 26.0847 17.392C26.2615 17.5571 26.4962 17.6447 26.7371 17.6358C26.9357 17.6437 27.1313 17.5849 27.2931 17.4688C27.4365 17.361 27.5393 17.2074 27.5846 17.0332H29.1786C29.1174 17.3757 28.9726 17.6976 28.7571 17.9698C28.5345 18.2479 28.2505 18.4697 27.9276 18.6176C27.5463 18.7839 27.1333 18.8636 26.7179 18.8511C26.3026 18.8386 25.895 18.7342 25.5242 18.5454C25.153 18.3433 24.8484 18.0366 24.6476 17.6629C24.4401 17.242 24.332 16.7785 24.332 16.3086C24.332 15.8387 24.4401 15.3752 24.6476 14.9544C24.8482 14.5809 25.154 14.2754 25.5265 14.0764C25.9263 13.876 26.3668 13.7717 26.8133 13.7717C27.2599 13.7717 27.7004 13.876 28.1002 14.0764C28.4619 14.2687 28.7602 14.5628 28.9589 14.9228C29.1678 15.3079 29.2729 15.7413 29.2638 16.18C29.2607 16.3175 29.2442 16.4543 29.2144 16.5885ZM27.4725 15.2185C27.2882 15.0524 27.047 14.965 26.7999 14.9747C26.5474 14.9659 26.3011 15.0547 26.1116 15.223C25.9181 15.4152 25.8071 15.6761 25.8022 15.9498H27.7236C27.7382 15.8167 27.7232 15.6821 27.6798 15.5557C27.6364 15.4292 27.5655 15.314 27.4725 15.2185Z" fill="black"/>
<path d="M32.368 14.0518C32.6589 13.8755 32.9925 13.7833 33.332 13.7854V15.4083H32.9016C32.5717 15.3875 32.2443 15.478 31.9712 15.6656C31.8522 15.7747 31.7602 15.9103 31.7026 16.0616C31.645 16.2128 31.6233 16.3756 31.6394 16.5368V18.7939H30.1328V13.8283H31.6394V14.7605C31.8221 14.4687 32.072 14.2256 32.368 14.0518Z" fill="black"/>
<path d="M37.338 14.2366C37.7131 14.5525 37.9623 14.9941 38.0397 15.4803H36.6295C36.5969 15.2936 36.4981 15.1252 36.3515 15.0063C36.1966 14.8859 36.0045 14.8244 35.809 14.8325C35.6708 14.8225 35.5336 14.8617 35.4211 14.9431C35.3768 14.9818 35.3419 15.0302 35.319 15.0846C35.296 15.1389 35.2857 15.1978 35.2889 15.2568C35.2889 15.3328 35.3122 15.4069 35.3555 15.469C35.3988 15.5312 35.4601 15.5785 35.531 15.6044C35.7774 15.7059 36.0336 15.7815 36.2955 15.8301C36.609 15.8998 36.9175 15.9903 37.2192 16.101C37.4631 16.1952 37.6792 16.3506 37.8469 16.5524C38.0325 16.7885 38.1265 17.0845 38.1114 17.3853C38.1172 17.654 38.0388 17.9178 37.8872 18.1391C37.718 18.3733 37.4841 18.5522 37.2147 18.6537C36.8904 18.7865 36.5423 18.8503 36.1924 18.8411C35.6265 18.8685 35.0671 18.7101 34.5983 18.3897C34.3975 18.2389 34.2291 18.0488 34.1031 17.8308C33.9771 17.6128 33.8962 17.3714 33.8652 17.1212H35.3202C35.326 17.2175 35.3532 17.3113 35.3998 17.3957C35.4463 17.4801 35.5111 17.5529 35.5893 17.6087C35.7673 17.7284 35.9785 17.7877 36.1924 17.778C36.3319 17.7878 36.4701 17.7452 36.5802 17.6584C36.624 17.6192 36.6586 17.5708 36.6815 17.5165C36.7043 17.4622 36.7149 17.4035 36.7125 17.3446C36.7154 17.2652 36.6937 17.1869 36.6503 17.1205C36.6069 17.0541 36.544 17.0031 36.4704 16.9745C36.2144 16.876 35.9503 16.8004 35.6812 16.7488C35.3767 16.6879 35.077 16.6049 34.7844 16.5005C34.5486 16.4115 34.3394 16.2631 34.1769 16.0694C33.9953 15.8394 33.9043 15.5501 33.9213 15.2568C33.916 15.0504 33.9587 14.8456 34.0459 14.6587C34.1331 14.4718 34.2623 14.308 34.4235 14.1802C34.8345 13.8807 35.3363 13.7347 35.8426 13.7671C36.3809 13.7375 36.9118 13.9042 37.338 14.2366Z" fill="black"/>
<path d="M45.0413 14.0846C45.3716 14.2988 45.6345 14.6033 45.7991 14.9626C45.9835 15.3899 46.0786 15.8509 46.0786 16.3168C46.0786 16.7828 45.9835 17.2437 45.7991 17.6711C45.6359 18.0324 45.3728 18.3387 45.0413 18.5536C44.716 18.7598 44.3383 18.8664 43.954 18.8606C43.6126 18.8696 43.2759 18.7803 42.9832 18.6032C42.7186 18.438 42.5124 18.1933 42.3936 17.9035V21.1605H40.8848V13.8385H42.3936V14.7414C42.5117 14.4507 42.7181 14.205 42.9832 14.0394C43.2759 13.8624 43.6126 13.7731 43.954 13.7821C44.3378 13.7749 44.7156 13.88 45.0413 14.0846ZM42.6873 15.4388C42.4911 15.6902 42.3844 16.0005 42.3844 16.3202C42.3844 16.6399 42.4911 16.9503 42.6873 17.2016C42.8954 17.4111 43.1776 17.5288 43.4719 17.5288C43.7663 17.5288 44.0485 17.4111 44.2566 17.2016C44.4485 16.9458 44.5523 16.634 44.5523 16.3134C44.5523 15.9929 44.4485 15.6811 44.2566 15.4253C44.1566 15.3193 44.0353 15.236 43.9007 15.1811C43.7662 15.1262 43.6215 15.101 43.4764 15.107C43.3295 15.1016 43.1831 15.1277 43.047 15.1838C42.9109 15.2398 42.7883 15.3245 42.6873 15.432V15.4388Z" fill="black"/>
<path d="M49.1844 14.0518C49.4761 13.8754 49.8104 13.7833 50.1507 13.7854V15.4083H49.718C49.3881 15.3882 49.061 15.4787 48.7876 15.6656C48.669 15.7749 48.5774 15.9106 48.5202 16.0619C48.463 16.2131 48.4417 16.3758 48.458 16.5368V18.7939H46.9492V13.8283H48.458V14.7605C48.6405 14.4693 48.8896 14.2263 49.1844 14.0518Z" fill="black"/>
<path d="M54.4856 14.0834C54.8618 14.2857 55.1729 14.5918 55.3823 14.9659C55.6007 15.3835 55.7148 15.8483 55.7148 16.3201C55.7148 16.792 55.6007 17.2568 55.3823 17.6744C55.1729 18.0485 54.8618 18.3546 54.4856 18.5569C54.0775 18.7589 53.6288 18.8639 53.174 18.8639C52.7193 18.8639 52.2706 18.7589 51.8625 18.5569C51.4792 18.3589 51.162 18.052 50.95 17.6744C50.7302 17.2573 50.6152 16.7923 50.6152 16.3201C50.6152 15.848 50.7302 15.383 50.95 14.9659C51.1626 14.5887 51.4797 14.2821 51.8625 14.0834C52.2706 13.8814 52.7193 13.7764 53.174 13.7764C53.6288 13.7764 54.0775 13.8814 54.4856 14.0834ZM52.4476 15.4038C52.2377 15.6554 52.1318 15.9786 52.1517 16.3066C52.1296 16.6349 52.2358 16.9589 52.4476 17.2094C52.5408 17.3095 52.6538 17.3887 52.7793 17.4419C52.9049 17.4952 53.0401 17.5213 53.1763 17.5187C53.3115 17.5215 53.4458 17.4954 53.5702 17.4421C53.6947 17.3888 53.8064 17.3095 53.8982 17.2094C54.1075 16.9577 54.212 16.6342 54.1896 16.3066C54.2099 15.9793 54.1057 15.6565 53.8982 15.4038C53.8073 15.3023 53.6958 15.2218 53.5712 15.1676C53.4466 15.1135 53.3119 15.087 53.1763 15.09C53.0397 15.0872 52.904 15.1137 52.7784 15.1678C52.6527 15.2219 52.54 15.3024 52.4476 15.4038Z" fill="black"/>
<path d="M59.435 14.0339C59.7016 14.2008 59.9113 14.4457 60.0358 14.7359V13.833H61.5334V18.7603C61.5403 19.1904 61.4499 19.6165 61.2688 20.0062C61.0912 20.3795 60.805 20.6896 60.4483 20.8955C60.0386 21.1287 59.5737 21.2457 59.1031 21.234C58.4688 21.2667 57.8424 21.0803 57.3275 20.7059C57.1075 20.5314 56.9238 20.3151 56.7869 20.0692C56.6499 19.8233 56.5624 19.5526 56.5294 19.2726H58.0181C58.0385 19.3684 58.0776 19.4592 58.133 19.5397C58.1884 19.6203 58.2591 19.6891 58.3409 19.7421C58.5382 19.8631 58.767 19.922 58.9978 19.9114C59.2745 19.9243 59.5451 19.827 59.7511 19.6405C59.8554 19.5241 59.9347 19.3872 59.9841 19.2384C60.0335 19.0897 60.0518 18.9323 60.038 18.7761V17.9071C59.9128 18.1962 59.7032 18.4402 59.4372 18.6068C59.1456 18.7845 58.8094 18.8738 58.4687 18.8641C58.0836 18.8704 57.705 18.7637 57.3791 18.5571C57.0482 18.3416 56.7853 18.0354 56.6213 17.6746C56.4369 17.2472 56.3418 16.7863 56.3418 16.3204C56.3418 15.8544 56.4369 15.3935 56.6213 14.9661C56.7866 14.6074 57.0493 14.303 57.3791 14.0881C57.705 13.8815 58.0836 13.7748 58.4687 13.7811C58.8082 13.7705 59.1436 13.8582 59.435 14.0339ZM58.1705 15.4265C57.9786 15.6824 57.8748 15.9942 57.8748 16.3147C57.8748 16.6353 57.9786 16.9471 58.1705 17.2029C58.3786 17.4124 58.6609 17.5301 58.9552 17.5301C59.2495 17.5301 59.5317 17.4124 59.7399 17.2029C59.9372 16.952 60.0445 16.6415 60.0445 16.3215C60.0445 16.0015 59.9372 15.6909 59.7399 15.4401C59.5303 15.2333 59.2486 15.1175 58.9552 15.1175C58.6618 15.1175 58.38 15.2333 58.1705 15.4401V15.4265Z" fill="black"/>
<path d="M64.897 14.0518C65.1887 13.8754 65.523 13.7833 65.8633 13.7854V15.4083H65.4306C65.1007 15.3882 64.7736 15.4787 64.5002 15.6656C64.3816 15.7749 64.2901 15.9106 64.2328 16.0619C64.1756 16.2131 64.1543 16.3758 64.1706 16.5368V18.7939H62.6641V13.8283H64.1706V14.7605C64.3531 14.4693 64.6022 14.2263 64.897 14.0518Z" fill="black"/>
<path d="M69.416 14.0334C69.6814 14.201 69.8902 14.4458 70.0146 14.7353V13.8325H71.5122V18.7981H70.0146V17.8952C69.8894 18.1837 69.6808 18.4276 69.416 18.5949C69.1233 18.772 68.7865 18.8612 68.4452 18.8522C68.0601 18.8586 67.6816 18.7519 67.3557 18.5453C67.0247 18.3298 66.7618 18.0236 66.5979 17.6628C66.4135 17.2354 66.3184 16.7744 66.3184 16.3085C66.3184 15.8426 66.4135 15.3816 66.5979 14.9543C66.7632 14.5955 67.0259 14.2911 67.3557 14.0763C67.6816 13.8696 68.0601 13.763 68.4452 13.7693C68.7872 13.7623 69.124 13.854 69.416 14.0334ZM68.1493 15.426C67.9588 15.6824 67.8559 15.994 67.8559 16.3142C67.8559 16.6343 67.9588 16.9459 68.1493 17.2023C68.3574 17.4118 68.6397 17.5295 68.934 17.5295C69.2283 17.5295 69.5105 17.4118 69.7186 17.2023C69.916 16.9515 70.0233 16.6409 70.0233 16.3209C70.0233 16.001 69.916 15.6904 69.7186 15.4395C69.5091 15.2328 69.2274 15.1169 68.934 15.1169C68.6406 15.1169 68.3588 15.2328 68.1493 15.4395V15.426Z" fill="black"/>
<path d="M80.4514 14.3497C80.8186 14.784 81.005 15.3444 80.9715 15.9138V18.7916H79.4717V16.0831C79.4799 15.9506 79.462 15.8177 79.4189 15.6922C79.3758 15.5666 79.3084 15.451 79.2206 15.3518C79.1309 15.2628 79.0238 15.1936 78.9061 15.1485C78.7883 15.1034 78.6626 15.0835 78.5368 15.09C78.4057 15.0832 78.2747 15.1046 78.1526 15.1529C78.0304 15.2011 77.9198 15.2751 77.8284 15.3699C77.6429 15.5873 77.5495 15.8693 77.5683 16.1553V18.7826H76.0595V16.0741C76.0766 15.8071 75.988 15.5441 75.8129 15.3428C75.7249 15.2547 75.6197 15.1859 75.5039 15.1408C75.3881 15.0958 75.2643 15.0754 75.1403 15.081C75.009 15.0742 74.8777 15.0952 74.7549 15.1426C74.6321 15.1901 74.5205 15.2629 74.4274 15.3563C74.3337 15.464 74.2622 15.5892 74.2168 15.7247C74.1714 15.8603 74.153 16.0036 74.1628 16.1463V18.7736H72.6562V13.808H74.1628V14.6882C74.2899 14.4136 74.4972 14.1844 74.7569 14.0314C75.0406 13.8654 75.3638 13.7803 75.6918 13.7854C76.0419 13.7789 76.3871 13.8694 76.6895 14.0472C76.9784 14.2235 77.2062 14.4852 77.3419 14.7966C77.5075 14.4943 77.7486 14.2407 78.0414 14.0608C78.4201 13.8386 78.8603 13.7466 79.2955 13.7988C79.7308 13.8509 80.1373 14.0443 80.4537 14.3497H80.4514Z" fill="black"/>
</svg>
