<svg width="14" height="12" viewBox="0 0 14 12" fill="none" xmlns="http://www.w3.org/2000/svg">
<g id="Twitter-logo 1" clip-path="url(#clip0_222_1588)">
<path id="Vector" d="M12.5294 3.06216C12.5378 3.18466 12.5378 3.30716 12.5378 3.43078C12.5378 7.1978 9.67011 11.5423 4.42632 11.5423V11.5401C2.87728 11.5423 1.36043 11.0986 0.0563965 10.262C0.281638 10.2891 0.508009 10.3026 0.734945 10.3032C2.01865 10.3043 3.26567 9.87361 4.27559 9.08046C3.05567 9.05732 1.98591 8.26191 1.6122 7.1007C2.03954 7.18312 2.47986 7.16619 2.8993 7.05159C1.5693 6.78288 0.612445 5.61433 0.612445 4.25724V4.22111C1.00874 4.44183 1.45244 4.56433 1.90632 4.57788C0.653655 3.7407 0.267525 2.07425 1.02398 0.771349C2.4714 2.5524 4.60696 3.63514 6.89946 3.74974C6.6697 2.75957 6.98357 1.72199 7.72422 1.02595C8.87245 -0.0534088 10.6783 0.00191377 11.7577 1.14957C12.3962 1.02369 13.0081 0.789414 13.5681 0.457478C13.3553 1.1174 12.9099 1.67796 12.3149 2.03417C12.8799 1.96756 13.432 1.81627 13.952 1.58538C13.5692 2.15893 13.0871 2.65853 12.5294 3.06216Z" fill="#1D1D1F"/>
</g>
<defs>
<clipPath id="clip0_222_1588">
<rect width="14" height="11.5161" fill="white" transform="translate(0 0.166687)"/>
</clipPath>
</defs>
</svg>
