<svg width="17" height="18" viewBox="0 0 17 18" fill="none" xmlns="http://www.w3.org/2000/svg">
<g clip-path="url(#clip0_55_1771)">
<path fill-rule="evenodd" clip-rule="evenodd" d="M8.38441 0.844543C3.79843 0.844543 0.0839844 4.55899 0.0839844 9.14497C0.0839844 12.8179 2.45998 15.9202 5.7594 17.02C6.17443 17.0926 6.33006 16.8436 6.33006 16.6257C6.33006 16.4286 6.31968 15.7749 6.31968 15.0798C4.2342 15.4637 3.69467 14.5714 3.52866 14.1045C3.43528 13.8658 3.03064 13.1292 2.67787 12.932C2.38735 12.7764 1.97233 12.3925 2.66749 12.3821C3.32115 12.3718 3.78805 12.9839 3.94368 13.2329C4.69072 14.4884 5.88391 14.1356 6.36119 13.9177C6.43381 13.3782 6.6517 13.015 6.89034 12.8075C5.04349 12.6 3.11364 11.8841 3.11364 8.7092C3.11364 7.80653 3.43528 7.05949 3.96444 6.47846C3.88143 6.27095 3.59092 5.42016 4.04744 4.27885C4.04744 4.27885 4.7426 4.06096 6.33006 5.12964C6.99409 4.94288 7.69963 4.8495 8.40517 4.8495C9.1107 4.8495 9.81624 4.94288 10.4803 5.12964C12.0677 4.05058 12.7629 4.27885 12.7629 4.27885C13.2194 5.42016 12.9289 6.27095 12.8459 6.47846C13.375 7.05949 13.6967 7.79615 13.6967 8.7092C13.6967 11.8945 11.7565 12.6 9.90962 12.8075C10.2105 13.0669 10.4699 13.565 10.4699 14.3431C10.4699 15.4533 10.4595 16.3456 10.4595 16.6257C10.4595 16.8436 10.6152 17.103 11.0302 17.02C14.3088 15.9202 16.6848 12.8075 16.6848 9.14497C16.6848 4.55899 12.9704 0.844543 8.38441 0.844543Z" fill="black"/>
</g>
<defs>
<clipPath id="clip0_55_1771">
<rect width="16.6009" height="16.6009" fill="white" transform="translate(0.0839844 0.844543)"/>
</clipPath>
</defs>
</svg>
