<svg width="63" height="16" viewBox="0 0 63 16" fill="none" xmlns="http://www.w3.org/2000/svg">
<path d="M12.3268 8.18425V10.9314C12.3259 11.1027 12.2804 11.2708 12.1951 11.4193C12.1098 11.5678 11.9874 11.6916 11.8396 11.7786L9.45968 13.1493C9.31231 13.2371 9.14394 13.2835 8.97251 13.2835C8.80108 13.2835 8.63271 13.2371 8.48534 13.1493L6.10544 11.7786C5.95762 11.6916 5.83518 11.5678 5.7499 11.4193C5.66462 11.2708 5.61914 11.1027 5.61783 10.9314V10.1604L6.83664 9.45314V10.7934L8.96857 12.0308L11.101 10.7934V8.32419L8.96857 7.08671L3.97306 9.98046C3.82438 10.0643 3.65645 10.1083 3.48589 10.1083C3.3149 10.1083 3.14741 10.0643 2.99828 9.98046L0.618819 8.60404C0.473191 8.51574 0.353367 8.3915 0.269838 8.24329C0.18631 8.09504 0.142578 7.92785 0.142578 7.75782V5.01066C0.14389 4.83932 0.189369 4.67121 0.274646 4.52274C0.359924 4.37423 0.482375 4.25042 0.630189 4.16349L3.01009 2.79275C3.15746 2.70577 3.32583 2.65991 3.49726 2.65991C3.66869 2.65991 3.83706 2.70577 3.98444 2.79275L6.36433 4.16349C6.51171 4.25042 6.6346 4.37423 6.71987 4.52274C6.80515 4.67121 6.85063 4.83932 6.85151 5.01066V5.7817L5.6257 6.48417V5.15152L3.49332 3.91408L1.36139 5.15152V7.61788L3.49332 8.85532L8.48883 5.96157C8.63752 5.87778 8.80546 5.83374 8.97645 5.83374C9.147 5.83374 9.31493 5.87778 9.46362 5.96157L11.8435 7.33804C11.99 7.42537 12.1116 7.54922 12.1964 7.69751C12.2813 7.84577 12.3263 8.01348 12.3268 8.18425Z" fill="#7B3FE4"/>
<path d="M18.7125 13.0113V10.3023C19.0064 10.6721 19.5404 10.8793 20.1581 10.8793C21.7364 10.8793 22.8023 9.75898 22.8023 8.05087C22.8023 6.34281 21.8227 5.22253 20.2898 5.22253C19.5825 5.22253 19.0379 5.48391 18.7114 5.90794V5.30566H17.2012V13.0077L18.7125 13.0113ZM19.9716 9.57348C19.1547 9.57348 18.6223 8.96395 18.6223 8.05087C18.6223 7.13785 19.1547 6.51747 19.9716 6.51747C20.7652 6.51747 21.3097 7.11975 21.3097 8.05087C21.3097 8.98204 20.769 9.57348 19.9716 9.57348Z" fill="black"/>
<path d="M26.2367 10.8793C27.923 10.8793 29.1278 9.68189 29.1278 8.05087C29.1278 6.4199 27.923 5.22253 26.2367 5.22253C24.5505 5.22253 23.3457 6.41868 23.3457 8.05087C23.3457 9.68311 24.5505 10.8793 26.2367 10.8793ZM26.2367 9.57348C25.4216 9.57348 24.8659 8.9531 24.8659 8.05087C24.8659 7.14864 25.4227 6.51747 26.2367 6.51747C27.0514 6.51747 27.6075 7.13663 27.6075 8.05087C27.6075 8.96517 27.0536 9.57348 26.2367 9.57348Z" fill="black"/>
<path d="M31.5524 10.7933V2.92737H30.041V10.7933H31.5524Z" fill="black"/>
<path d="M36.0982 5.30945L34.9565 8.84494L33.8038 5.30945H32.2559L34.2454 10.7482L33.4407 13.0116H34.8862L35.6632 10.7723L37.6544 5.31188L36.0982 5.30945Z" fill="black"/>
<path d="M41.9029 5.85376C41.5985 5.47306 41.06 5.22253 40.3915 5.22253C38.7916 5.22253 37.8242 6.34281 37.8242 8.05087C37.8242 9.75898 38.7883 10.8793 40.4131 10.8793C41.0551 10.8793 41.6306 10.6384 41.914 10.2372V10.9599C41.914 11.4707 41.5764 11.8297 41.1204 11.8297H38.5962V13.0162H41.36C42.5991 13.0162 43.4259 12.2657 43.4259 11.1226V5.30925H41.9029V5.85376ZM40.6527 9.57348C39.847 9.57348 39.3146 8.9712 39.3146 8.05087C39.3146 7.1306 39.847 6.51747 40.6527 6.51747C41.4585 6.51747 42.0008 7.11975 42.0008 8.05087C42.0008 8.98204 41.4685 9.57348 40.6527 9.57348Z" fill="black"/>
<path d="M47.2348 10.8793C48.9216 10.8793 50.1258 9.68189 50.1258 8.05087C50.1258 6.4199 48.9216 5.22253 47.2348 5.22253C45.5485 5.22253 44.3438 6.41868 44.3438 8.05087C44.3438 9.68311 45.5485 10.8793 47.2348 10.8793ZM47.2348 9.57348C46.4185 9.57348 45.864 8.9531 45.864 8.05087C45.864 7.14864 46.4185 6.51747 47.2348 6.51747C48.0516 6.51747 48.6056 7.13663 48.6056 8.05087C48.6056 8.96517 48.0505 9.57348 47.2348 9.57348Z" fill="black"/>
<path d="M52.4814 10.7925V7.78949C52.4814 7.08239 52.9485 6.57165 53.6126 6.57165C54.2435 6.57165 54.6674 7.05351 54.6674 7.71362V10.7925H56.1904V7.37631C56.1904 6.11392 55.3857 5.22253 54.1422 5.22253C53.3918 5.22253 52.7836 5.53815 52.4792 6.06572V5.30925H50.959V10.7925H52.4814Z" fill="black"/>
</svg>
