<svg width="58" height="8" viewBox="0 0 58 8" fill="none" xmlns="http://www.w3.org/2000/svg">
<path id="Vector" d="M0.338623 7.08054H1.37918V4.90876H2.90763C2.9652 4.90876 3.04148 4.90588 3.13647 4.90012C3.23433 4.89437 3.32357 4.88573 3.40416 4.87422C3.93955 4.79074 4.33678 4.56766 4.59584 4.20498C4.85777 3.83942 4.98874 3.40046 4.98874 2.88809C4.98874 2.37285 4.85921 1.93389 4.60015 1.57121C4.34397 1.20565 3.94531 0.981126 3.40416 0.897652C3.32357 0.88326 3.23577 0.874625 3.14078 0.871746C3.0458 0.865989 2.96808 0.86311 2.90763 0.86311H0.338623V7.08054ZM1.37918 3.93728V1.8389H2.86445C2.92202 1.8389 2.98679 1.84178 3.05875 1.84754C3.13071 1.85329 3.19691 1.86337 3.25736 1.87776C3.43007 1.92094 3.56535 1.99866 3.66322 2.11091C3.76397 2.2203 3.83449 2.34407 3.87479 2.48223C3.91796 2.6204 3.93955 2.75569 3.93955 2.88809C3.93955 3.0205 3.91796 3.15579 3.87479 3.29395C3.83449 3.43212 3.76397 3.55589 3.66322 3.66527C3.56535 3.77465 3.43007 3.85093 3.25736 3.89411C3.19691 3.91138 3.13071 3.92289 3.05875 3.92865C2.98679 3.93441 2.92202 3.93728 2.86445 3.93728H1.37918ZM8.91501 7.21007C9.53675 7.21007 10.0693 7.07478 10.5125 6.80421C10.9587 6.53076 11.2998 6.1508 11.5358 5.66435C11.7747 5.17789 11.8942 4.61372 11.8942 3.97183C11.8942 3.32706 11.7747 2.76288 11.5358 2.2793C11.2998 1.79285 10.9587 1.41433 10.5125 1.14376C10.0693 0.870307 9.53675 0.733582 8.91501 0.733582C8.29614 0.733582 7.76363 0.870307 7.31747 1.14376C6.87419 1.41433 6.5331 1.79285 6.29419 2.2793C6.05816 2.76288 5.94014 3.32706 5.94014 3.97183C5.94014 4.61372 6.05816 5.17789 6.29419 5.66435C6.5331 6.1508 6.87419 6.53076 7.31747 6.80421C7.76363 7.07478 8.29614 7.21007 8.91501 7.21007ZM8.91501 6.22996C8.29039 6.22133 7.8212 6.01264 7.50745 5.6039C7.1937 5.19516 7.03826 4.65114 7.04114 3.97183C7.04402 3.51703 7.11454 3.11981 7.25271 2.78015C7.39087 2.4405 7.59812 2.17712 7.87445 1.99002C8.15078 1.80004 8.49763 1.70793 8.91501 1.71369C9.54251 1.72233 10.0117 1.93101 10.3226 2.33975C10.6363 2.74849 10.7932 3.29251 10.7932 3.97183C10.7932 4.42374 10.7227 4.82096 10.5816 5.1635C10.4435 5.50316 10.2348 5.76653 9.95556 5.95363C9.67923 6.14073 9.33238 6.23284 8.91501 6.22996ZM14.2365 7.08054H15.2641L16.5335 2.65926L17.8029 7.08054H18.8305L20.6439 0.86311H19.5516L18.3167 5.35348L17.0775 0.86311L15.9852 0.871746L14.7503 5.35348L13.5112 0.86311H12.4188L14.2365 7.08054ZM21.7802 7.08054H25.7956V6.10475H22.8208V4.34746H25.2775V3.37167H22.8208V1.8389H25.7956V0.86311H21.7802V7.08054ZM27.2633 7.08054H28.3038V4.90876H29.7805L30.834 7.08054H32.0127L30.8642 4.7231C31.2182 4.56478 31.4816 4.32444 31.6543 4.00205C31.827 3.67966 31.9134 3.30835 31.9134 2.88809C31.9134 2.37285 31.7839 1.93389 31.5248 1.57121C31.2686 1.20565 30.8699 0.981126 30.3288 0.897652C30.2482 0.88326 30.1604 0.874625 30.0654 0.871746C29.9704 0.865989 29.8927 0.86311 29.8323 0.86311H27.2633V7.08054ZM28.3038 3.93728V1.8389H29.7891C29.8467 1.8389 29.9114 1.84178 29.9834 1.84754C30.0553 1.85329 30.1216 1.86337 30.182 1.87776C30.3547 1.92094 30.49 1.99866 30.5879 2.11091C30.6886 2.2203 30.7591 2.34407 30.7994 2.48223C30.8426 2.6204 30.8642 2.75569 30.8642 2.88809C30.8642 3.0205 30.8426 3.15579 30.7994 3.29395C30.7591 3.43212 30.6886 3.55589 30.5879 3.66527C30.49 3.77465 30.3547 3.85093 30.182 3.89411C30.1216 3.91138 30.0553 3.92289 29.9834 3.92865C29.9114 3.93441 29.8467 3.93728 29.7891 3.93728H28.3038ZM33.3957 7.08054H37.4111V6.10475H34.4363V4.34746H36.893V3.37167H34.4363V1.8389H37.4111V0.86311H33.3957V7.08054ZM38.8788 7.08054H40.8606C40.9095 7.08054 41.0117 7.0791 41.1671 7.07622C41.3254 7.07334 41.4751 7.06327 41.6162 7.046C42.1113 6.98267 42.5286 6.80853 42.8683 6.52356C43.208 6.23572 43.4656 5.87016 43.6412 5.42688C43.8167 4.9836 43.9045 4.49858 43.9045 3.97183C43.9045 3.44507 43.8167 2.96005 43.6412 2.51677C43.4656 2.07349 43.208 1.70793 42.8683 1.42009C42.5286 1.13224 42.1113 0.958099 41.6162 0.897652C41.4723 0.880381 41.3226 0.870307 41.1671 0.867428C41.0146 0.86455 40.9124 0.86311 40.8606 0.86311H38.8788V7.08054ZM39.9366 6.10043V1.84322H40.8606C40.9469 1.84322 41.0563 1.8461 41.1887 1.85185C41.3211 1.85473 41.4406 1.86769 41.5471 1.89071C41.8349 1.9454 42.071 2.07349 42.2552 2.27498C42.4394 2.47648 42.5761 2.72546 42.6654 3.02194C42.7575 3.31554 42.8035 3.63217 42.8035 3.97183C42.8035 4.29709 42.7604 4.60796 42.674 4.90444C42.5876 5.20092 42.4509 5.45278 42.2638 5.66003C42.0796 5.8644 41.8407 5.99537 41.5471 6.05294C41.4406 6.07309 41.3211 6.08604 41.1887 6.0918C41.0563 6.09755 40.9469 6.10043 40.8606 6.10043H39.9366ZM47.5176 7.08054H50.2333C50.8464 7.08054 51.3113 6.91071 51.6279 6.57106C51.9445 6.2314 52.1028 5.78524 52.1028 5.23258C52.1028 4.91883 52.0251 4.63387 51.8697 4.37769C51.7171 4.1215 51.4912 3.93009 51.1918 3.80344C51.3847 3.6883 51.5358 3.52567 51.6452 3.31554C51.7574 3.10254 51.8135 2.85499 51.8135 2.5729C51.8135 2.2937 51.7474 2.02312 51.615 1.76118C51.4855 1.49925 51.2854 1.2848 51.0149 1.11785C50.7472 0.948024 50.4031 0.86311 49.9829 0.86311H47.5176V7.08054ZM48.571 3.34577V1.83458H49.9699C50.2175 1.83458 50.4103 1.90655 50.5485 2.05047C50.6866 2.19439 50.7558 2.37429 50.7558 2.59018C50.7558 2.83772 50.6794 3.02626 50.5269 3.15579C50.3772 3.28244 50.1916 3.34577 49.9699 3.34577H48.571ZM48.571 6.10043V4.31724H50.134C50.4247 4.31724 50.6507 4.40215 50.8119 4.57198C50.973 4.74181 51.0536 4.95193 51.0536 5.20236C51.0536 5.47869 50.963 5.69745 50.7816 5.85864C50.6032 6.01984 50.3772 6.10043 50.1038 6.10043H48.571ZM54.6467 7.08054H55.7002V4.53312L57.8116 0.86311H56.5983L55.1735 3.34145L53.7443 0.86311H52.5311L54.6467 4.53312V7.08054Z" fill="black" fill-opacity="0.6"/>
</svg>
