<svg width="20" height="20" viewBox="0 0 20 20" fill="none" xmlns="http://www.w3.org/2000/svg">
<rect width="19.6842" height="19.2632" rx="2.31579" fill="#007ACD"/>
<path d="M6.11801 11.7007V10.5263H11.6509V11.7007H9.5884V17.2632H8.18051V11.7007H6.11801ZM16.2167 12.4638C16.1904 12.1985 16.0774 11.9924 15.8779 11.8454C15.6783 11.6985 15.4075 11.625 15.0654 11.625C14.8329 11.625 14.6367 11.6579 14.4766 11.7237C14.3165 11.7873 14.1937 11.8761 14.1081 11.9902C14.0248 12.1042 13.9831 12.2336 13.9831 12.3783C13.9788 12.4989 14.004 12.6042 14.0588 12.6941C14.1158 12.784 14.1937 12.8619 14.2924 12.9277C14.391 12.9913 14.5051 13.0472 14.6345 13.0954C14.7638 13.1415 14.902 13.1809 15.0489 13.2138L15.6542 13.3586C15.9481 13.4244 16.2178 13.5121 16.4634 13.6217C16.709 13.7314 16.9217 13.8663 17.1016 14.0263C17.2814 14.1864 17.4206 14.375 17.5193 14.5921C17.6202 14.8092 17.6717 15.0581 17.6739 15.3388C17.6717 15.7511 17.5665 16.1086 17.3581 16.4112C17.152 16.7116 16.8538 16.9452 16.4634 17.1119C16.0752 17.2763 15.607 17.3586 15.0588 17.3586C14.5149 17.3586 14.0413 17.2752 13.6377 17.1086C13.2364 16.9419 12.9228 16.6952 12.697 16.3684C12.4733 16.0395 12.3559 15.6327 12.345 15.1481H13.7233C13.7386 15.3739 13.8033 15.5625 13.9174 15.7138C14.0336 15.863 14.1882 15.9759 14.3812 16.0527C14.5763 16.1272 14.7967 16.1645 15.0424 16.1645C15.2836 16.1645 15.493 16.1294 15.6706 16.0592C15.8505 15.9891 15.9897 15.8915 16.0884 15.7665C16.1871 15.6415 16.2364 15.4978 16.2364 15.3356C16.2364 15.1842 16.1915 15.057 16.1016 14.954C16.0138 14.8509 15.8845 14.7632 15.7134 14.6908C15.5445 14.6184 15.3373 14.5527 15.0917 14.4934L14.3581 14.3092C13.7902 14.1711 13.3417 13.9551 13.0127 13.6612C12.6838 13.3674 12.5204 12.9715 12.5226 12.4737C12.5204 12.0658 12.629 11.7095 12.8483 11.4046C13.0698 11.0998 13.3735 10.8619 13.7595 10.6908C14.1454 10.5198 14.584 10.4342 15.0752 10.4342C15.5752 10.4342 16.0117 10.5198 16.3845 10.6908C16.7595 10.8619 17.0511 11.0998 17.2595 11.4046C17.4678 11.7095 17.5752 12.0625 17.5818 12.4638H16.2167Z" fill="#F2F2F2"/>
</svg>
