<svg width="18" height="14" viewBox="0 0 18 14" fill="none" xmlns="http://www.w3.org/2000/svg">
<g id="Twitter-logo 1" clip-path="url(#clip0_94_914)">
<path id="Vector" d="M15.6886 3.66156C15.6986 3.80681 15.6986 3.95207 15.6986 4.09867C15.6986 8.56551 12.2981 13.7171 6.08018 13.7171V13.7144C4.24338 13.7171 2.44473 13.191 0.898438 12.199C1.16552 12.2311 1.43395 12.2471 1.70304 12.2478C3.22524 12.2492 4.70392 11.7384 5.90145 10.7979C4.4549 10.7705 3.18641 9.8273 2.74327 8.45037C3.25 8.5481 3.77213 8.52802 4.26948 8.39213C2.6924 8.0735 1.55779 6.68787 1.55779 5.07865V5.03581C2.0277 5.29755 2.55384 5.4428 3.09203 5.45887C1.60665 4.46616 1.14879 2.49013 2.04577 0.945175C3.76209 3.0571 6.29439 4.34099 9.01278 4.47687C8.74034 3.30276 9.11252 2.07243 9.99076 1.24707C11.3523 -0.0328035 13.4937 0.0327967 14.7735 1.39367C15.5306 1.24439 16.2562 0.966595 16.9203 0.572994C16.6679 1.35551 16.1398 2.02021 15.4342 2.4426C16.1043 2.36361 16.759 2.18421 17.3755 1.91043C16.9216 2.59053 16.35 3.18294 15.6886 3.66156Z" fill="black"/>
</g>
<defs>
<clipPath id="clip0_94_914">
<rect width="16.6009" height="13.6555" fill="white" transform="translate(0.832031 0.227966)"/>
</clipPath>
</defs>
</svg>
